<svg xmlns="http://www.w3.org/2000/svg" width="746.921" height="106.667" viewBox="0 0 700.23822 100.00011"><g fill="#dadada"><path style="line-height:normal;text-indent:0;text-align:start;text-decoration-line:none;text-decoration-style:solid;text-decoration-color:#000;text-transform:none;block-progression:tb;isolation:auto;mix-blend-mode:normal" d="M0 50c0 .662 17.3 1.02 274.22 1.02 0 0 1.03-.055 1.05-1.038.017-.984-1.05-1-1.05-1C17.178 48.98 0 49.253 0 50zM700.238 50c0 .662-17.3 1.02-274.22 1.02 0 0-1.03-.055-1.05-1.038-.017-.984 1.05-1 1.05-1 257.043 0 274.22.272 274.22 1.018z" color="#000" font-weight="400" font-family="sans-serif" white-space="normal" overflow="visible" fill-rule="evenodd"/><path d="M328.78 99.863c-1.746-.272-3.067-.716-3.99-1.34-.325-.22-.673-.514-.773-.65-1.13-1.55 1-4.814 5.406-8.284.203-.16.483-.382.62-.493.14-.11.623-.44 1.077-.736 3.535-2.294 8.295-3.804 13.865-4.4 1.524-.16 6.366-.233 6.587-.096.223.138-1.366 2.778-2.598 4.315-4.775 5.957-12.64 9.448-20.108 8.922-.786-.056-1.528-.143-1.648-.195-.175-.076-.15-.082.12-.032.187.035 1.147.06 2.133.06 1.378-.004 2.06-.052 2.935-.207 4.45-.79 8.04-2.44 11.66-5.358.76-.614 2.58-2.45 3.012-3.042a6.85 6.85 0 0 1 .336-.436c.07-.065.977-1.34 1.18-1.66.21-.33.853-1.54.853-1.606 0-.027-.273-.02-.606.02-.647.072-.876.21-1.115.676-.16.31-.733 1.08-1.517 2.037-.692.844-2.693 2.803-3.647 3.57-3.11 2.5-7.067 4.256-10.083 4.476l-.727.053 1.108-.24c3.803-.817 6.915-2.548 10.03-5.58.687-.668 1.6-1.65 2.03-2.184.726-.9 1.813-2.47 1.813-2.615 0-.057-.412-.023-1.226.1-.25.04-.382.166-.727.698-1.55 2.39-5.027 5.39-7.852 6.774-.91.447-2.3.958-2.38.876-.026-.025.055-.076.18-.114.43-.132 1.876-.85 2.406-1.193 1.824-1.182 3.83-3.013 5.284-4.82.612-.76 1.467-1.983 1.387-1.983-.014 0-.396.065-.846.145-.54.094-.85.197-.907.3-.175.312-1.324 1.793-1.733 2.232-.807.868-2.874 2.454-3.498 2.684-.278.103-.195-.002.243-.304.96-.666 2.716-2.678 3.398-3.893.206-.366.238-.484.13-.484-.46 0-3.685 1.067-5.105 1.69-3.83 1.677-8.208 5.26-9.89 8.093-.516.866-.593 1.294-.28 1.56.705.598 2.556 1.203 4.498 1.47 1.147.158 4.123.156 5.285-.003 4.407-.603 7.734-2.034 11.2-4.816 1.794-1.44 3.637-3.573 5.19-6.007 1.16-1.82 1.858-3.102 3.643-6.69 3.875-7.787 5.16-9.93 8.466-14.108.4-.507.845-1.052.988-1.212.142-.16.62-.706 1.06-1.212 3.652-4.19 8.62-8.587 12.845-11.364 4.808-3.16 9.284-4.875 12.702-4.863 2.027.007 3.292.45 4.366 1.53.98.987 1.354 1.995 1.29 3.487-.037.81-.08.99-.4 1.635-.895 1.813-2.904 3.264-6.08 4.392-3.416 1.214-8.055 1.674-10.813 1.073-.874-.19-2.016-.58-2.056-.7-.02-.057.667-.143 1.69-.214.948-.065 2.094-.184 2.548-.265 4.695-.835 8.317-2.958 9.66-5.662.265-.53.3-.31.082.524-.248.95-.797 1.872-1.596 2.68-1.136 1.148-2.65 2.057-4.364 2.622-1.076.354-.797.35.724-.012 5.212-1.238 8.934-3.788 8.996-6.163.03-1.108-.705-2.222-1.792-2.718-.538-.247-.738-.282-1.77-.313-2.268-.07-4.77.675-8.188 2.436-3.414 1.758-6.955 4.213-10.72 7.43l-1.085.925c-1.173.99-4.85 4.707-6.01 6.077-.242.285-.556.65-.697.81-2.26 2.555-5.176 6.737-7.234 10.374-1.018 1.8-1.068 1.89-1.51 2.716-3.2 6.008-5.162 8.94-7.847 11.72-3.977 4.12-8.453 6.387-13.996 7.09-1.41.18-4.446.178-5.607-.003zm10.476-17.92c-.022-.02-.607-.064-1.3-.097-4.187-.203-9.248-.98-13.77-2.11-3.674-.92-10.773-3.217-13.213-4.273-3.077-1.333-5.5-2.996-6.502-4.463-1.64-2.404-1.424-4.492.685-6.59 2.21-2.203 6.347-4.123 11.76-5.462 2.548-.63 6.317-1.287 6.57-1.144.112.064.087-.045-.114-.485-.437-.963-1.385-3.437-1.88-4.917-1.278-3.8-2.212-7.832-2.92-12.605-.424-2.844-.982-8.787-.83-8.836.025-.01.31.152.63.357 3.665 2.355 10.3 3.548 20.555 3.694 5.09.073 9.428-.108 13.38-.56l1.6-.18c3.24-.365 7.38-1.23 9.843-2.054 2.838-.95 4.897-2.482 4.897-3.643 0-1.41-3.655-2.97-9.454-4.038-5.855-1.08-11.413-1.48-19.33-1.39-4.764.05-5.818.106-8.983.46-5.406.604-9.798 1.818-11.732 3.24-.583.43-1.116.73-1.116.63 0-.197.93-1.03 1.76-1.577 3.283-2.162 9.267-3.603 17.875-4.305 2.55-.208 10.603-.237 13.284-.047 5.35.38 9.95 1.08 13.255 2.02 1.882.536 4.09 1.544 4.96 2.263 1.16.962 1.655 2.11 1.413 3.28-.454 2.198-2.542 3.747-6.735 5-1.477.44-4.122.983-5.73 1.175-.26.03-.568.077-.683.1-.382.083-3.836.42-5.61.55-2.696.196-12.038.166-15.125-.05-2.487-.174-6.527-.57-7.563-.74a53.08 53.08 0 0 0-1.358-.2c-3.084-.408-6.92-1.38-8.376-2.118l-.593-.3v.275c0 .65.63 4.71 1.075 6.94 1.89 9.44 4.99 17.395 8.712 22.344a98.05 98.05 0 0 1 1.025 1.38c.307.436 2.646 2.71 3.405 3.31 1.73 1.366 3.8 2.48 5.563 2.99 1.47.427 5.872.736 8.15.573 3.747-.27 7.208-1.947 10.183-4.935 3.813-3.83 6.478-8.827 9.546-17.9 1.378-4.076 1.576-4.647 2.033-5.867 1.692-4.525 3.015-7.012 4.558-8.57 1.436-1.45 2.934-2.103 4.85-2.118 2.345-.017 3.94 1.052 4.802 3.222.803 2.02.718 5.41-.202 8.093-.817 2.38-2.15 4.61-3.685 6.16-1.944 1.965-4.797 3.285-6.88 3.183l-.63-.03.728-.358c.4-.196 1.177-.627 1.725-.956 3.54-2.126 5.642-6.193 5.644-10.918 0-1.905-.365-3.41-1.01-4.154-.392-.453-.38-.543.035-.248 1.506 1.072 2.226 5.048 1.52 8.39-.35 1.65-1.06 3.316-1.92 4.49-.574.787-.076.318.648-.61a15.27 15.27 0 0 0 2.86-6.185c.31-1.507.41-2.758.298-3.82-.187-1.8-.587-2.836-1.422-3.682-.618-.626-1.408-.905-2.56-.905-1.912 0-3.465 1.073-5.062 3.498-1.03 1.565-2.344 4.615-3.902 9.06-2.84 8.096-3.578 9.98-5.178 13.187-1.506 3.02-2.908 5.148-4.822 7.32-1.1 1.25-1.306 1.445-2.696 2.563-.86.69-2.71 1.898-2.91 1.898-.19 0-.935.52-.857.598.047.048.824.15 1.727.226 1.627.138 1.652.137 3.14-.11 1.593-.263 2.86-.592 3.525-.913l.405-.197-.34.298c-1.106.975-4.43 1.913-8.726 2.465-5.578.717-13.27.615-18.374-.242-2.14-.36-4.242-.912-5.38-1.414-.598-.265-1.45-.814-1.453-.938-.002-.045.03-.064.07-.044.928.476 1.778.728 3.387 1.004.75.13 1.248.15 2.354.098.77-.036 1.42-.082 1.44-.103.09-.09-.152-.29-1.066-.89-1.298-.854-1.944-1.392-3.327-2.774l-1.163-1.162-.824.064c-3.04.23-6.11.984-7.11 1.747-.57.435-.53.574.177.662.79.098 1.69.558 2.176 1.11.217.245.393.505.393.576 0 .213-.458.263-1.097.12-.862-.19-2.864-.162-3.647.05-.716.197-1.574.62-1.996.988-.17.15-.21.216-.097.162.508-.24 2.14-.61 3.06-.696.803-.074 2.42-.048 2.42.038 0 .01-.187.216-.413.46a5.82 5.82 0 0 0-.743 1.092c-.183.356-.456.805-.61.997-.26.33-.343.518-.41.95-.025.175-.107.19-1.035.178-2.495-.03-4.16-1.092-4.16-2.654 0-.887.75-1.964 1.792-2.574.57-.334 1.746-.732 2.345-.794.47-.05.51-.075.67-.434.22-.483.92-1.118 1.6-1.45 1.37-.667 3.462-1.22 5.46-1.444.54-.06 1.035-.127 1.103-.147.08-.023-.015-.23-.276-.596-.69-.973-1.622-2.424-1.994-3.104-.197-.36-.452-.81-.567-.996-.114-.186-.31-.557-.437-.824-.402-.85-.465-.918-.76-.82-.142.05-.914.2-1.714.338-2.886.494-6.496 1.476-8.95 2.436-1.037.405-3.348 1.436-3.558 1.587-.053.04-.36.214-.68.39-1.555.853-3.04 2.22-3.56 3.277-.268.543-.317.75-.317 1.333 0 1.767 1.587 3.44 4.9 5.164 5.258 2.738 13.433 4.722 23.802 5.778 3.85.392 5.78.48 10.666.486 4.795.006 6.575-.065 9.688-.388.742-.077 1.367-.122 1.39-.1.02.022-.066.208-.194.413s-.403.69-.61 1.08c-.24.447-.452.722-.576.75-.706.152-4.04.48-6.4.627-1.445.09-8.21.14-8.3.062zm17.947-1.274c0-.028.32-.518.713-1.09l.714-1.04.862-.13c5.208-.774 11.582-2.393 15.35-3.896 1.247-.498 3.048-1.33 3.645-1.682.266-.158.635-.373.82-.477.633-.36 1.75-1.255 2.216-1.78.727-.814.94-1.307.938-2.173 0-.62-.04-.802-.284-1.242-.43-.776-1.397-1.626-2.6-2.284-.573-.312-1.04-.584-1.04-.603 0-.02.337.12.75.307 1.504.684 2.645 1.61 3.187 2.59.247.446.28.6.28 1.33-.002.676-.043.902-.23 1.26-.637 1.212-1.983 2.43-3.99 3.608-1.458.856-5.318 2.732-6.923 3.366-3.966 1.566-8.765 2.952-12.94 3.74-1.382.258-1.467.27-1.467.195zm-32.743-3.836c-1.256-.223-2.653-.798-3.332-1.372-.53-.448-.625-1.082-.24-1.59.286-.372 1.064-.696 1.88-.78 1.073-.11 3.186.277 4.352.8 1.027.46 1.085.464.637.054-.546-.5-1.38-.93-2.313-1.195-.97-.274-2.658-.298-3.33-.046-.578.216-.622.203-.45-.13.79-1.53 2.75-2.008 5.003-1.225 1.28.445 2.517 1.494 2.897 2.458.16.404.093 1.32-.13 1.786-.198.41-.69.78-1.43 1.07-.417.165-.77.21-1.78.233-.694.014-1.488-.014-1.764-.063zm16.2-8.62a15.39 15.39 0 0 1-7.886-3.95c-2.303-2.173-4.09-4.987-5.207-8.2-.295-.847-.614-1.95-.576-1.99.027-.024.65 1.02 1.203 2.014 1.62 2.913 4.167 6.117 6.13 7.71.946.766 2.305 1.68 3.196 2.15 2.005 1.06 4.18 1.702 7.514 2.218.455.07.467.08.194.144-.607.144-3.556.082-4.567-.096zm1.95-2.4c-1.782-.23-3.808-.95-5.42-1.925-.91-.552-2.25-1.643-3.266-2.665-1.178-1.183-2.344-2.84-3.092-4.397-.526-1.095-.902-2.098-.785-2.098.042 0 .4.49.793 1.09 1.95 2.963 4.43 5.476 7.212 7.313 1.693 1.117 3.065 1.77 4.894 2.323.61.186 1.13.357 1.155.38.052.052-1.056.035-1.49-.02zm-3.103-31.942c-4.812-.2-9.904-.858-13.437-1.74-1.412-.352-3.753-1.173-4.398-1.542-1-.572-1.322-1.2-.936-1.818.692-1.105 4.256-2.318 9.172-3.12 2.005-.328 4.315-.574 7.563-.804 2.274-.162 10.115-.16 12.315 0 6.7.494 10.262 1.07 13.51 2.19 1.602.55 2.468 1.11 2.776 1.793.148.33.158.438.06.675-.382.922-3.487 2.138-7.57 2.966-6.05 1.226-12.25 1.682-19.053 1.402zm12.332-1.236c1.708-.215 4.117-.667 5.266-.987 3.222-.9 4.563-1.795 4.07-2.72-.152-.28-.91-.622-1.9-.852-1.168-.273-1.473-.257-.425.02 2.243.597 2.713 1.278 1.37 1.986-1.132.597-2.763 1.06-5.83 1.653-3.103.6-5.537.886-9.55 1.12-.32.017.77.02 2.424.005 2.314-.022 3.367-.073 4.575-.226zm-5.232-1.236c-.033-.032-.116-.035-.186-.008-.078.03-.055.054.058.06.103.003.16-.02.128-.052zm2.353-.186c3.808-.43 6.4-1.173 6.4-1.837 0-.42-1.165-.912-2.52-1.063-.476-.053-.44-.04.775.256 1.318.323 1.75.615 1.477 1.003-.335.48-3.914 1.268-7.634 1.678-.654.073-.7.09-.29.1.266.006 1.073-.055 1.793-.136zm4.946-11.042c0-.022.177-.408.394-.86.476-.993.665-1.737.67-2.647.004-.928-.173-1.473-1.07-3.29-.42-.853-.836-1.834-.924-2.18-.314-1.236-.036-2.38.848-3.5.472-.597.616-.51.193.118-.456.676-.627 1.33-.576 2.204.053.912.317 1.527 1.336 3.112 1.144 1.777 1.425 2.575 1.337 3.782-.08 1.068-.756 2.28-1.69 3.022-.316.25-.517.343-.517.238zm-20.362-2.21c0-.122.08-.355.178-.515.343-.562.597-1.403.595-1.966-.004-.85-.146-1.306-.898-2.88l-.696-1.455-.002-.92c-.002-.854.022-.97.322-1.57.32-.636.735-1.137.848-1.024.032.033-.06.355-.205.717-.224.56-.256.76-.22 1.345.054.82.33 1.393 1.306 2.71.912 1.234 1.242 1.97 1.24 2.767-.005 1.063-.568 2.026-1.514 2.584-.755.445-.956.49-.956.21zm9.6-.116c0-.074.178-.587.397-1.14 1.055-2.658.91-3.904-.882-7.613-1.082-2.24-1.268-2.807-1.33-4.057-.058-1.107.085-1.833.56-2.85.315-.677.99-1.668 1.39-2.04.364-.337.322-.098-.137.786-.834 1.604-1.032 2.74-.726 4.183.192.908.642 1.794 1.805 3.557.544.827 1.138 1.815 1.32 2.197.448.94.648 2.093.514 2.966-.24 1.55-.945 2.743-2.242 3.786-.472.38-.67.446-.67.224z"/></g></svg>