<svg xmlns="http://www.w3.org/2000/svg" width="746.921" height="86.302" viewBox="0 0 700.23822 80.908128"><g fill="#dadada"><path style="line-height:normal;text-indent:0;text-align:start;text-decoration-line:none;text-decoration-style:solid;text-decoration-color:#000;text-transform:none;block-progression:tb;isolation:auto;mix-blend-mode:normal" d="M0 54.454c0 .663 17.3 1.02 274.22 1.02 0 0 1.03-.055 1.05-1.038.017-.984-1.05-1-1.05-1C17.178 53.435 0 53.707 0 54.453zM700.238 54.454c0 .663-17.3 1.02-274.22 1.02 0 0-1.03-.055-1.05-1.038-.017-.984 1.05-1 1.05-1 257.043 0 274.22.272 274.22 1.018z" color="#000" font-weight="400" font-family="sans-serif" white-space="normal" overflow="visible" fill-rule="evenodd"/><path d="M300.278 80.764c.484-.073.885-.232.89-.352.007-.12.03-7.913.053-17.317.04-16.3.07-17.105.63-17.25.33-.087.597-.455.607-.838.096-3.608.056-5.36-.124-5.54-.118-.118-.203-.803-.19-1.522.015-.72.1-1.127.188-.907.397.98.788.244.767-1.44-.03-2.355.395-5.498 1.06-7.864.29-1.02.524-2.282.524-2.802 0-.688.153-.944.562-.94.382.003.438.083.174.25-.422.268-.347 1.366.245 3.588.212.793.45 2.306.53 3.363.08 1.057.278 2.058.44 2.226.16.166.293 1.134.293 2.15 0 1.51.088 1.814.48 1.664.58-.222.672 1.17.144 2.156-.185.346-.293 1.373-.24 2.282l.096 1.653 2.442-3.965h13.41v-1.32c0-1.138.068-1.266.482-.922.42.347.48.13.48-1.704 0-1.156.144-2.19.32-2.3.177-.108.32-.853.32-1.654 0-.8.237-2.34.526-3.424.495-1.854.667-2.713.73-3.65.014-.22.278-.397.586-.394.448.004.47.06.113.288-.47.297-.398 1.303.302 4.19.492 2.03.91 5.307.93 7.287.014 1.568.393 2.2.764 1.28.088-.22.172.213.186.96l.025 1.363h15.694v-4.484c0-2.776-.122-4.484-.32-4.484-.45 0-.4-1.714.065-2.18.243-.242.388-1.476.395-3.346.005-1.628.1-3.033.21-3.12.112-.09.373-1.17.582-2.403.798-4.728.898-5.16 1.003-4.323.056.44.183-.28.283-1.602.155-2.028.27-2.395.743-2.357.49.04.56-.272.56-2.48 0-1.472.135-2.528.32-2.528.177 0 .32-.51.32-1.13 0-.734.18-1.2.505-1.325.35-.134.484-.548.437-1.35-.123-2.09-.046-2.283.902-2.243.483.02.65.1.37.174-.7.188-.8 2.847-.134 3.515.266.266.484.905.484 1.42 0 .517.144.94.32.94.187 0 .32 1.07.32 2.575 0 2.276.065 2.566.56 2.482.462-.077.58.19.66 1.508.055.88.235 1.738.4 1.905.166.168.302.852.302 1.52 0 .67.125 1.218.28 1.218.152 0 .377 1.01.498 2.243.122 1.233.325 2.242.453 2.242.127 0 .226 1.362.22 3.026-.006 2.008.125 3.163.39 3.428.476.477.54 2.194.08 2.194-.198 0-.32 1.708-.32 4.484v4.484h15.693l.025-1.362c.015-.748.1-1.18.188-.96.413 1.023.672.13.875-3.016.122-1.878.503-4.433.848-5.678.346-1.244.608-2.734.628-3.31.027-.775.404-.917.56-1.042.157-.126.253 3.053.522 4.158.28 1.145.512 2.686.515 3.424.002.74.148 1.432.325 1.54.176.11.32 1.122.32 2.25 0 1.694.084 2.022.48 1.87.373-.143.48.075.48.97v1.156h13.412l2.442 3.965.096-1.653c.053-.91-.055-1.936-.24-2.282-.426-.797-.436-2.173-.016-2.432.176-.11.342-.01.37.22.028.23.166-.517.307-1.662.517-4.176.65-5 1.13-7.013.458-1.92.682-3.172.734-4.116.012-.22-.01-.578.298-.564-.028.973.382 3.36.657 4.413.577 2.19 1.2 7.422 1.027 8.642-.092.64.456.76.73.16.1-.22.114.32.032 1.2-.128 1.363-.26 6.595-.187 7.263.014.12.277.266.585.326.526.1.56 1.186.56 17.394v17.287l.96.205c.53.114-21.88.2-49.8.196-27.918-.006-50.365-.07-49.88-.144zm2.16-6.976c0-4.377-.115-6.886-.32-6.886-.203 0-.32 2.51-.32 6.886 0 4.377.117 6.885.32 6.885.205 0 .32-2.508.32-6.885zm1.01 4.336c.09-1.948.246-2.647.67-2.963.686-.512.244-1.404-.548-1.1-.376.144-.47.407-.318.887.146.46.1.61-.138.463-.25-.153-.354.6-.354 2.522 0 1.508.128 2.74.286 2.74.157 0 .338-1.146.402-2.548zm1.233-.052c0-2.276-.06-2.55-.48-2.202-.34.283-.48 1.034-.48 2.6 0 1.745.1 2.203.48 2.203.388 0 .48-.502.48-2.6zm1.282.4c0-1.568-.138-2.32-.48-2.602-.42-.35-.48-.074-.48 2.202 0 2.1.092 2.6.48 2.6.38 0 .48-.457.48-2.2zm.87-.687c-.02-1.655-.152-2.53-.37-2.456a.49.49 0 0 0-.308.486c.018.206.054 1.39.08 2.635.027 1.25.178 2.18.337 2.083.16-.098.277-1.335.26-2.748zm1.052-3.997c0-4.377-.117-6.886-.32-6.886-.204 0-.32 2.51-.32 6.886 0 4.377.116 6.885.32 6.885.203 0 .32-2.508.32-6.885zm2.242 6.245c0-.498-.214-.64-.96-.64-.748 0-.962.142-.962.64s.214.64.96.64c.748 0 .962-.142.962-.64zm2.24 0c0-.498-.212-.64-.96-.64-.747 0-.96.142-.96.64s.213.64.96.64c.748 0 .96-.142.96-.64zm6.318-27.865s.41-.45.41-2.724c0-2.185.056-2.398.64-2.398.46 0 .63.2.603.72-.028.543-.074.582-.184.16-.328-1.256-.74-.432-.74 1.482 0 1.955.034 2.042.787 2.042.747 0 .792-.108.88-2.12.076-1.695.204-2.138.64-2.22.467-.09.563.236.658 2.237l.11 2.343.064-2.642.064-2.643h-14.412v.705c0 .548.085.62.384.32.462-.46 1.217-.507 1.217-.074 0 .17-.216.227-.48.126-.397-.152-.48.178-.48 1.892 0 1.99.032 2.076.786 2.076.748 0 .793-.108.882-2.12.076-1.717.2-2.138.654-2.224.49-.094.56.173.56 2.142 0 1.798.113 2.32.56 2.594.513.314.507.336-.08.256l-2.447-.076c-1.144-.028-1.172 0-1.362 1.385-.292 2.132-.234 3.567.145 3.567.187 0 .247.15.133.333-.133.216.085.26.622.126.667-.168.828-.093.83.387 0 .44.127.355.478-.32.262-.502.397-1.042.3-1.2-.293-.473-1.048-.325-1.38.27-.173.308-.42.453-.55.323-.283-.284.775-1.52 1.303-1.52.7 0 1.727 1.436 2.06 2.882.402 1.744.46 8.967.072 8.967-.152 0-.207-.36-.123-.8.088-.468.003-.8-.206-.8-.196 0-.38.467-.408 1.04l-.052 1.04-.13-1.04c-.134-1.086-.71-1.455-.75-.48-.02.458-.063.473-.24.08-.12-.265-.47-.5-.78-.525-.414-.033-.56.196-.56.88 0 .57-.153.895-.4.846-.272-.055-.4.38-.4 1.36 0 1.397.035 1.448 1.12 1.64l1.122.198-1.2.043c-1.192.042-1.202.054-1.202 1.39v1.35l.936-1.108c.784-.93 1.03-1.052 1.52-.755 1.288.78 1.81 2.314 1.964 5.774l.148 3.32h2.36c2.146 0 2.36-.058 2.36-.64 0-.44-.228-.655-.72-.685l-.722-.045.72-.14c.443-.084.722-.37.722-.74 0-.522-.252-.6-1.922-.59-1.678.007-1.922.086-1.922.623 0 .488.23.614 1.12.614 1.08 0 1.47.39.802.8-.176.11-.32.046-.32-.14 0-.586-1.543-.385-1.7.22-.082.31-.164-.85-.185-2.574-.03-2.53.084-3.372.59-4.364.767-1.503 1.492-1.835 2.346-1.075 1.12.995 1.512 2.466 1.512 5.68 0 1.822.13 3.053.32 3.053s.32-1.158.32-2.834c0-3.082.37-4.615 1.382-5.734.776-.858 1.268-.907 1.862-.187.397.48.372.496-.26.16-.938-.5-.97-.493-1.57.426-.5.763-.49.828.23 1.416.66.535.824.556 1.264.16.774-.696 1.02-.54.295.186-.898.898-.82 1.602.175 1.602.76 0 .805-.086.67-1.264-.08-.696-.253-1.438-.385-1.65-.146-.24-.104-.305.11-.173.24.15.352-.63.36-2.512.005-1.547-.125-2.727-.3-2.727-.17 0-.31-.44-.31-.98 0-.624-.126-.902-.348-.764-.19.117-.277.486-.19.818.196.748-.07.92-.903.587-.544-.22-.556-.26-.08-.28.373-.015.548-.264.523-.743-.03-.578-.067-.605-.188-.138-.147.565-.166.565-.594 0-.407-.537-.443-.507-.452.39-.008.755-.153.97-.65.97-.608 0-.642-.21-.64-4.013 0-2.207.16-4.59.35-5.295.365-1.336 1.412-2.722 2.057-2.722.594 0 1.534 1.182 1.136 1.428-.47.292-.43.815.064.815.27 0 .437-.637.5-1.922l.064-2.583c-.013-1.307-.154-1.143-.674-1.104-1.16.494-1.235 1.1-1.643-.023m-7.386 18.53c.57-.07 1.578-.07 2.243 0 .664.068.2.126-1.034.128-1.234.003-1.778-.054-1.21-.125zm7.054.02c.22-.09.58-.09.8 0 .22.09.04.162-.4.162s-.62-.073-.4-.162zm-10.81-1.71c0-.64.16-.96.48-.96.32 0 .482.32.482.96 0 .64-.16.962-.48.962-.32 0-.48-.32-.48-.96zm.54-.06c-.102-.255-.178-.18-.194.194-.014.338.062.527.17.42.105-.106.116-.382.024-.613zm.774.14c-.023-.725.113-1.04.448-1.04.338 0 .468.31.437 1.04-.038.907-.065.938-.21.24l-.164-.8-.24.8c-.225.75-.242.735-.272-.24zm3.87.026c.11-.932.902-1.453.902-.594 0 .29-.144.437-.32.328-.177-.11-.32.014-.32.274s.18.546.4.635c.23.093.154.172-.182.186-.447.02-.558-.174-.48-.83zm1.222.544c0-.17.216-.227.48-.125.265.1.48.24.48.31 0 .068-.215.125-.48.125-.264 0-.48-.14-.48-.31zm4.163-.65c0-.64.16-.96.48-.96.32 0 .48.32.48.96 0 .64-.16.96-.48.96-.32 0-.48-.32-.48-.96zm.54-.06c-.103-.256-.18-.18-.194.193-.015.338.06.527.167.42.107-.106.118-.382.026-.613zm.74.06c0-.64.162-.96.482-.96.32 0 .48.32.48.96 0 .64-.16.96-.48.96-.32 0-.48-.32-.48-.96zm.54-.06c-.102-.256-.178-.18-.193.193-.014.338.062.527.168.42.107-.106.118-.382.026-.613zm-5.663-.474c0-.235.13-.427.286-.427.158 0 .36.192.45.427.09.235-.038.427-.286.427a.44.44 0 0 1-.45-.427zm-.4-1.004c-.38-.075-.56-.41-.56-1.048 0-.88.078-.937 1.28-.937h1.282v-3.03c0-2.418-.088-3-.433-2.868-.262.1-.388.51-.317 1.03.095.705.066.75-.155.24-.27-.622-.275-.622-.626 0-.35.62-.36.62-.844-.015-.27-.354-.493-.46-.5-.24-.005.22-.163.4-.35.4-.51 0-.044-1.178.846-2.138.427-.462.776-.948.776-1.082 0-.134.29-.168.646-.075.495.13.6.05.446-.348-.11-.285-.327-.438-.485-.34-.157.097-.286-.048-.286-.322 0-.296-.277-.5-.68-.5-.585 0-.654.135-.488.96.16.81.09.962-.44.962-.35 0-.642.036-.653.08-.012.044-.1.8-.197 1.68-.234 2.138-.425 2.245-.425.24 0-1.983.23-2.655.827-2.426.28.106.454-.03.454-.36 0-.345-.143-.447-.4-.288-.236.143-.187-.08.116-.542.86-1.31 1.722-1.18 2.642.395.748 1.28.812 1.712.876 5.946.04 2.512-.014 4.65-.117 4.754-.103.103-.45.02-.772-.186-.52-.333-.523-.355-.024-.2.43.134.562-.01.562-.616 0-.888-.628-1.106-.663-.23-.02.476-.063.464-.285-.08-.23-.56-.276-.52-.378.327-.087.718-.26.938-.677.856zm.4-1.024c0-.353-.144-.64-.32-.64-.176 0-.32.287-.32.64 0 .352.144.64.32.64.176 0 .32-.288.32-.64zm.247-6.345c.07-.213-.168-.38-.54-.38-.666 0-.865.336-.447.753.296.297.83.095.987-.373zm.978-1.448c.07-.36-.113-.535-.56-.535-.366 0-.665.192-.665.427 0 .98 1.038 1.07 1.225.107zm-3.853 7.23c-.057-.13-.017-1.104.088-2.16l.19-1.922.055 2.162c.05 1.97-.055 2.566-.333 1.92zm.744-2.24c.04-2.755.184-2.567.365.48.066 1.1.003 2.002-.14 2.002-.144 0-.245-1.117-.224-2.483zm.287-12.022c.414.108.517-.24.58-1.97.078-2.097-.235-2.646-.88-1.54-.178.307-.327.415-.33.24-.01-.653.577-1.21 1.074-1.02.395.153.513.662.513 2.22 0 1.893.048 2.026.754 2.084.715.06.758-.044.81-1.986.04-1.423-.068-2.09-.353-2.185-.253-.084-.227-.122.07-.1.375.025.502.582.575 2.505l.093 2.473-1.054-.035zm1.277-.87a.32.32 0 0 1 .32-.32.32.32 0 0 1 .32.32.32.32 0 0 1-.32.32.32.32 0 0 1-.32-.32zm7.046 29.465c0-.848-1.583-.926-1.64-.08-.034.534-.043.534-.182 0-.222-.847-2.02-.775-2.02.08 0 .57.212.64 1.92.64s1.922-.07 1.922-.64zm.994-1.04c.045-2.243.046-10.057.002-11.39-.02-.596-.17-.975-.346-.866-.39.24-.354 13.937.036 13.937.15 0 .29-.757.31-1.682zm4.45-.915c0-2.683-.406-4.26-1.043-4.05-.694.232-.67 1.2.03 1.2.478 0 .592.16.464.65-.16.613-.192.617-.604.08-.38-.497-.476-.508-.756-.088-.286.427-.323.427-.334 0-.008-.326-.217-.223-.65.32-.517.65-.598.68-.428.16.115-.352.423-.814.685-1.025.55-.444.31-1.377-.353-1.377-.542 0-.844 1.6-.85 4.484l-.003 2.082 3.843.05V78.08zm.993 1.875c.16-3.586-.003-12.908-.227-12.97-.16-.046-.322 2.97-.37 6.804-.053 4.484.03 6.887.24 6.887.18 0 .34-.325.357-.72zm4.452.112c0-.53-.247-.608-1.922-.608-1.674 0-1.92.078-1.92.608s.246.61 1.92.61c1.675 0 1.922-.08 1.922-.61zm.983-2.354c.012-1.628.12-3.177.24-3.442.31-.68 1.006-.75 1.653-.165.496.447.6.45.958.017.222-.267.53-.406.687-.31.458.284.326-.46-.234-1.314-.667-1.02-1.188-.997-2.034.09-.43.552-.565.632-.365.215.456-.945 1.23-1.516 1.775-1.307.676.26 1.424 1.522 1.655 2.792l.2 1.104-.566-.768c-.54-.732-.586-.74-.997-.18-.633.868-.524 1.422.29 1.47l.722.045-.722.14c-.45.085-.72.37-.72.756 0 .478.225.618.998.618.894 0 .982-.083.843-.807-.086-.445-.03-.886.122-.98.153-.094.277.745.277 1.865v2.036l-1.12-.13c-.97-.114-1.122-.04-1.122.544 0 .585.19.676 1.406.676h1.407l.127-3.603c.13-3.698.395-4.572 1.628-5.342.54-.337.758-.27 1.533.473l.903.867.01-2.732c.01-2.167-.09-2.77-.48-2.92-.315-.122-.42-.41-.296-.804.107-.338.045-.707-.138-.82-.198-.123-.334.127-.334.613 0 .45-.124.82-.275.82-.152 0-.207-.36-.123-.8.09-.468.004-.802-.205-.802-.197 0-.358.42-.358.932 0 .773-.11.902-.64.763-.397-.103-.64-.436-.64-.873 0-.597-.175-.703-1.122-.687-.997.017-1.12.114-1.12.874 0 .695-.12.822-.642.685-.42-.11-.653-.456-.678-1.01-.037-.815-.045-.81-.244.117-.144.678-.393.96-.842.96-.507-.003-.617-.183-.535-.882.056-.483-.052-.88-.24-.88-.19 0-.344.403-.344.893 0 .68-.153.893-.64.893-.608 0-.64-.214-.64-4.114 0-2.902-.105-4.05-.352-3.897-.193.12-.287.655-.21 1.19.133.896.11.924-.3.363-.384-.524-.488-.542-.753-.13-.265.415-.347.417-.603.02-.23-.36-.395-.377-.754-.08-.382.318-.454.22-.425-.58.02-.528.21-.96.423-.96.332-.002 1.053-.946 1.053-1.378 0-.075-.345-.07-.767.01-.547.105-.822.425-.96 1.117-.277 1.384-.24 6.34.046 6.296 1.042-.164 3.283.104 3.283.393 0 .195-.217.27-.48.17-.348-.133-.48.035-.48.606 0 .577-.174.79-.642.79-.47 0-.64-.213-.64-.8 0-.894-.628-1.122-.663-.24-.02.48-.063.467-.298-.08-.175-.408-.284.74-.298 3.166l-.022 3.807.844-.845c1.026-1.025 1.11-1.03 1.96-.123 1.073 1.144 1.36 2.313 1.36 5.545 0 1.8.128 3.022.32 3.022.188 0 .33-1.216.342-2.963zm-3.465-7.185c.308-.08.812-.08 1.12 0 .31.08.057.146-.56.146-.616 0-.87-.065-.56-.145zm2.566-.01c.486-.073 1.207-.07 1.6.005.394.076-.003.136-.885.134-.88-.002-1.203-.065-.716-.14zm4.96.004a4.56 4.56 0 0 1 1.44 0c.396.076.072.138-.72.138-.793 0-1.117-.062-.72-.14zm2.727.003c.312-.08.744-.075.96.012.218.088-.037.155-.566.148-.527-.006-.704-.078-.393-.16zm-10.975-1.7c0-.64.16-.96.48-.96.265 0 .48.225.48.5 0 .274-.143.41-.32.3-.175-.108-.32.015-.32.275s.18.546.4.635c.24.096.175.17-.16.186-.414.018-.56-.225-.56-.936zm1.476.697c-.272-.44.18-1.692.567-1.565.578.19.65 1.83.08 1.83-.266 0-.557-.12-.647-.265zm.766-.376a.32.32 0 0 0-.32-.32.32.32 0 0 0-.32.32c0 .176.144.32.32.32a.32.32 0 0 0 .32-.32zm3.203-.32c0-.64.16-.96.48-.96.32 0 .48.32.48.96 0 .64-.16.96-.48.96-.32 0-.48-.32-.48-.96zm.54-.06c-.104-.256-.18-.18-.195.193-.014.338.062.527.168.42.107-.106.118-.382.026-.613zm.74.06c0-.64.16-.96.48-.96.32 0 .48.32.48.96 0 .64-.16.96-.48.96-.32 0-.48-.32-.48-.96zm.533-.4c-.09-.22-.162-.04-.162.4s.073.62.162.4c.09-.22.09-.58 0-.8zm3.31.38c0-.623.163-.94.48-.94.265 0 .482.215.482.48 0 .264-.145.48-.32.48-.177 0-.32.12-.32.267 0 .148.43.268.96.268.99 0 1.326-.407.49-.59-.315-.07-.38-.252-.197-.546.382-.61.988-.156.988.743 0 .652-.16.746-1.28.762-1.21.016-1.282-.036-1.282-.923zm-10.728-1.58c-.11-.178-.045-.322.14-.322.188 0 .34.144.34.32 0 .177-.063.32-.14.32-.08 0-.23-.143-.34-.32zm2.402 0c0-.178.153-.322.34-.322.186 0 .25.144.14.32-.11.177-.26.32-.34.32-.077 0-.14-.143-.14-.32zm4.163 12.81c0-.5-.213-.64-.96-.64-.748 0-.96.14-.96.64 0 .497.212.64.96.64.747 0 .96-.143.96-.64zm7.366.03c0-.53-.247-.607-1.92-.607-1.676 0-1.923.078-1.923.608s.247.61 1.922.61c1.674 0 1.92-.08 1.92-.61zm1.922.427c0-.1-.223-.405-.496-.678-.626-.625-1.002-.312-.418.348.437.495.913.667.913.33zm3.28-8.383l.675-.72h-2.674c.093 3.03-.227 6.456.32 9.287.772-2.68-.213-6.484 1.68-8.567zm2.825 5.854l.18-2.57.06 2.64c.035 1.51.198 2.644.38 2.644.508-3.265.32-5.632.32-9.288h-2.68l.94 1.01c.622.668.75.943.38.81-.31-.11-.56-.06-.56.112 0 .17.206.31.458.31.735 0 .97 1.263.322 1.736-.307.225-.456.574-.33.777.125.204.087.37-.085.37s-.368-.167-.436-.37c-.07-.205-.445-.42-.837-.48-.518-.08-.794.108-1.016.69-.394 1.038-.48 1.01-.48-.16 0-.716.15-.96.584-.96.658 0 .64-.982-.02-1.2-1.478 2.09-1.043 3.867-1.043 6.538l3.683-.036.18-2.57zm2.862 2.393a.32.32 0 0 0-.32-.32.32.32 0 0 0-.32.32c0 .176.144.32.32.32a.32.32 0 0 0 .32-.32zm5.125-.32c0-.505-.274-.59-1.922-.598-1.676-.008-1.922.07-1.922.598 0 .53.246.606 1.922.598 1.648-.007 1.922-.092 1.922-.597zm.96-1.863c0-3.172.704-5.64 1.816-6.37.807-.527.85-.52 1.574.323 1.025 1.192 1.41 2.805 1.412 5.908 0 1.548.134 2.644.322 2.644.19 0 .32-1.22.32-3.022 0-3.232.286-4.4 1.358-5.545.86-.918 1.006-.906 1.992.156l.813.878v-3.69c0-3.463-.04-3.695-.64-3.74-.467-.036-.64.148-.64.678 0 .4-.087.814-.192.92-.383.382-1.09-.17-1.09-.852 0-.47-.21-.714-.64-.747-.496-.038-.64.148-.64.823 0 .66-.158.873-.64.873-.49 0-.642-.214-.642-.893 0-.49-.16-.892-.357-.892-.21 0-.293.336-.203.81.085.444.03.885-.122.98-.153.094-.282-.306-.288-.89-.01-1-.036-1.025-.48-.437-.466.615-.47.615-.508 0-.023-.362-.124-.224-.242.33-.173.808-.364.96-1.244.996-.57.023-1.04-.098-1.04-.267 0-.17.218-.226.482-.125.347.133.48-.035.48-.606 0-.89-.62-1.1-.678-.23-.035.533-.044.533-.183 0-.215-.82-.802-.685-.692.16.105.797-.006.88-1.17.88-.64 0-.8-.16-.8-.8 0-.44-.16-.8-.357-.8-.207 0-.295.33-.208.783.125.653.01.8-.683.88-.738.087-.845.258-.934 1.507-.066.91.048 1.504.32 1.677.32.2.325.267.02.27-.24.004-.4.44-.4 1.1 0 1.393.294 2.163.723 1.897.184-.114.535.066.78.4.293.4.522.49.672.258.125-.193.537-.514.916-.713.947-.5 1.073-.052 1.073 3.815 0 1.904.128 3.177.32 3.177.186 0 .32-1.05.32-2.504zm-4.483-5.11c0-.154.338-.6.75-.987.853-.8 1.638-.66 2.184.39.32.615.266.603-.516-.116l-.87-.8-.775.898c-.425.494-.773.77-.773.616zm1.04-2.535c.31-.08.813-.08 1.12 0 .31.08.057.146-.56.146-.616 0-.868-.065-.56-.145zm5.605.008c.22-.09.58-.09.8 0 .22.088.04.16-.4.16s-.62-.072-.4-.16zm5.464-.006c.23-.093.507-.08.613.025.107.106-.082.182-.42.168-.373-.015-.45-.09-.193-.193zm-11.727-1.703c.077-1.008.698-1.302 1.014-.48.113.292 0 .48-.285.48-.26 0-.47.16-.47.354 0 .195.215.272.48.17.264-.1.48-.044.48.126 0 .17-.29.31-.646.31-.52 0-.632-.186-.573-.96zm1.86.61c.36-.255.38-.38.08-.5-.564-.23-.502-1.07.08-1.07.32 0 .48.32.48.96 0 .703-.15.96-.56.956-.485-.004-.496-.052-.08-.345zm3.52-.61c0-.64.162-.96.482-.96.32 0 .48.32.48.96 0 .64-.16.96-.48.96-.32 0-.482-.32-.482-.96zm.54-.06c-.102-.256-.178-.18-.193.193-.014.338.062.527.168.42.107-.106.118-.382.025-.613zm.774.14c-.02-.726.115-1.04.45-1.04.337 0 .467.31.437 1.04-.038.906-.065.937-.21.24l-.165-.8-.24.8c-.223.75-.24.734-.27-.24zm5.734.53c.362-.254.382-.38.08-.5-.563-.23-.5-1.07.08-1.07.32 0 .48.32.48.96 0 .703-.15.96-.56.956-.483-.004-.494-.052-.08-.345zm-1.717-1.09c.1-.265.313-.48.47-.48.158 0 .286.215.286.48 0 .264-.21.48-.47.48-.286 0-.398-.188-.286-.48zm-4.368 11.69c0-.5-.214-.64-.962-.64-.747 0-.96.14-.96.64 0 .497.213.64.96.64.748 0 .96-.143.96-.64zm2.24 0c0-.5-.212-.64-.96-.64-.747 0-.96.14-.96.64 0 .497.213.64.96.64.748 0 .96-.143.96-.64zm5.125.03c0-.53-.247-.607-1.92-.607-1.676 0-1.923.078-1.923.608s.247.61 1.922.61c1.674 0 1.92-.08 1.92-.61zm1.267-6.425c.01-4.167-.103-6.773-.304-6.896-.385-.24-.37-.484-.435 6.724-.056 6.1.022 7.3.454 7.033.147-.09.276-3.178.285-6.86zm4.178 4.68c0-3.454-.238-4.37-1.113-4.3-.517.044-.673.22-.564.635.082.316.385.574.673.574.344 0 .523.273.523.798v.8l-.585-.72c-.438-.54-.628-.61-.76-.282-.144.36-.22.363-.438.01-.193-.312-.35-.193-.593.445-.422 1.11-.507 1.095-.507-.09 0-.702.15-.96.56-.96.662 0 .7-.51.115-1.565-.274-.494-.503-.635-.648-.4-.124.2-.08.363.095.363.18 0 .118.387-.14.88-.288.553-.46 1.85-.46 3.476l-.003 2.594 1.92.058 1.923.057v-2.37zm1.242-4.528c-.007-3.84-.142-6.963-.307-7.065-.378-.234-.35-.672-.415 6.58-.058 6.426.002 7.367.465 7.367.148 0 .264-3.097.257-6.882zm1.997 4.72c.02-1.19.103-1.91.183-1.6.22.845 2.02.774 2.02-.08 0-.57-.212-.642-1.92-.642s-1.922.07-1.922.64c0 .438.23.655.722.685l.72.043-.72.14c-.45.086-.72.37-.72.756 0 .415.236.633.72.662l.72.044-.72.138c-1.048.202-.98 1.376.08 1.376.77 0 .802-.08.838-2.162zm2.204 1.52c0-.497-.213-.64-.96-.64-.748 0-.96.143-.96.64 0 .5.212.642.96.642.747 0 .96-.143.96-.64zm.96-2.41c0-3.216.392-4.687 1.512-5.683.35-.314.852-.487 1.114-.387.75.288 1.86 2.53 1.86 3.756 0 1.025-.066 1.1-.836.952-.512-.098-.943.012-1.116.285-.202.32-.283.33-.286.043-.003-.23-.413-.4-.966-.4-.764 0-.96.138-.96.676 0 .583.152.657 1.12.544 1.098-.128 1.12-.107 1.12 1.022 0 1.128-.022 1.15-1.12 1.02-.968-.112-1.12-.037-1.12.546 0 .612.18.676 1.92.676 1.686 0 1.922-.076 1.922-.62 0-.385-.27-.67-.72-.756-.618-.12-.595-.145.16-.182.737-.037.88.086.88.757 0 .44.145.8.32.8.18 0 .338-.958.358-2.16.02-1.19.103-1.91.184-1.602.12.46.512.56 2.176.56 1.75 0 2.02-.076 1.95-.56-.115-.803-1.772-.967-1.822-.18-.034.535-.05.536-.184.02-.102-.39-.5-.576-1.323-.614l-1.178-.054 1.2-.125c.9-.094 1.2-.27 1.2-.708 0-.32-.2-.75-.445-.953-.353-.293-.592-.184-1.147.52-.435.554-.63.67-.515.306.103-.323.186-.767.186-.987 0-.542 1-.528 1.635.023.44.382.572.375.92-.044.223-.268.532-.488.686-.488.156 0-.006.288-.358.64-.95.952-.82 1.602.32 1.602.964 0 1.34-.69.62-1.135-.19-.116-.273-.394-.187-.617.213-.557-.957-2.412-1.522-2.412-.253 0-.775.397-1.16.88-.582.73-.624.747-.24.1.833-1.41 1.472-1.57 2.333-.58.42.485.832.88.914.88.08 0 .15-1.232.155-2.74.006-2.09-.1-2.78-.453-2.915-.253-.096-.46-.49-.46-.874 0-.484-.196-.697-.64-.697-.8 0-.87 1.045-.08 1.22.308.067.02.193-.64.28-1.14.146-1.202.108-1.202-.742 0-.493-.16-.897-.358-.897-.208 0-.294.335-.204.802.084.44.03.8-.123.8-.394 0-.34-7.607.066-9.064.187-.67.735-1.66 1.218-2.202l.88-.983.84 1c.464.55.924 1 1.024 1 .1 0 .18-.72.18-1.6v-1.6H386.46l.147-1.008c.102-.697.036-.937-.216-.78-.2.122-.362.575-.362 1.005v.782h-3.696c-3.152 0-3.635-.066-3.283-.45.227-.246.46-.318.52-.16.222.603.693.256.693-.51 0-.442-.144-.802-.32-.802-.176 0-.32.162-.32.36 0 .258-.128.254-.452-.016-.34-.283-.507-.284-.68-.005-.167.27-.303.252-.504-.065-.19-.3-.275-.134-.275.526 0 .738.073.85.31.48.266-.41.312-.398.317.08.002.31-.15.562-.336.562-.21 0-.303.72-.243 1.92.052 1.058.223 1.923.38 1.923.155 0 .11.21-.104.466-.51.617-.155 1.14.725 1.068.504-.042.72-.283.754-.845.03-.492-.044-.636-.2-.383-.174.28-.397.108-.736-.573-.452-.905-.442-1.016.138-1.54.713-.646 1.305-.415 2.242.872.7.963.85 1.91.882 5.66.015 1.743.158 2.96.347 2.96.192 0 .322-1.31.324-3.28.005-4.02.156-4.707.988-4.49.468.123.57.037.42-.355-.11-.285-.364-.416-.566-.292-.202.123-.134-.13.15-.563.757-1.15 1.688-1.162 2.494-.03.373.522.763 1.38.87 1.906.157.792.07.994-.517 1.18-.515.163-.61.32-.354.577.202.202.327 1.315.294 2.61-.046 1.82-.078 1.946-.163.656-.06-.88-.19-1.962-.29-2.402-.178-.786-.19-.79-.655-.16-.468.633-.476.634-.827.014-.352-.622-.356-.622-.617 0-.21.5-.247.435-.187-.315.042-.517.364-1.265.716-1.662.62-.697.65-.7.87-.1.295.796 1.212.81 1.212.018 0-.663-1.076-1.01-2.368-.763-.547.105-.823.425-.96 1.117-.32 1.598-.226 6.334.125 6.334.177 0 .332-.18.346-.4.02-.32.06-.32.188 0 .242.602 1.063.483 1.106-.16.035-.533.044-.533.183 0 .105.4.47.56 1.263.56.614 0 1.035.133.936.293-.1.16-.54.253-.98.204-.65-.07-.8.053-.8.67 0 .542-.18.756-.64.756-.453 0-.64-.214-.64-.733 0-.503-.2-.747-.64-.78-.51-.04-.64.15-.64.91 0 .53-.126.884-.278.79-.153-.095-.208-.536-.123-.98.09-.474.007-.81-.203-.81-.197 0-.358.398-.358.882 0 .843-.068.88-1.6.88-.925 0-1.556-.134-1.494-.32.06-.175.49-.273.96-.217.683.083.853-.03.853-.56 0-.802-.625-.897-.677-.103-.033.486-.058.48-.193-.047-.125-.487-.21-.52-.438-.16-.203.32-.285.333-.288.047-.002-.22-.15-.4-.325-.4-.176 0-.32.44-.32.98 0 .57-.134.896-.32.78-.198-.12-.32.425-.32 1.423 0 1.08.132 1.622.4 1.625.307.004.303.066-.017.27-.52.328-.4 3.234.125 3.033.192-.074.537.092.767.37.378.455.474.45 1.024-.048.593-.535.596-.525.118.393-.676 1.295-.634 1.422.465 1.422.984 0 1.197-.412.657-1.266-.162-.256-.207-.606-.1-.78.388-.627.68.99.702 3.887.013 1.748.154 2.964.343 2.964.19 0 .32-1.23.32-3.053zm4.164.65c0-.274-.31-.497-.72-.518-.654-.034-.662-.052-.08-.197.352-.088.746-.323.876-.523s.237.105.24.677c.002.574-.067 1.042-.156 1.042-.088 0-.16-.216-.16-.48zm-6.21-5.755c-.654-1-1.285-1.03-1.938-.1-.274.393-.5.56-.5.37 0-.415 1.05-1.4 1.492-1.4.424 0 1.87 1.55 1.65 1.77-.095.094-.41-.194-.703-.64zm-1.536-1.99c.23-.093.507-.08.614.025.106.107-.083.182-.42.168-.374-.015-.45-.09-.194-.193zm2.882 0c.232-.093.508-.08.614.025.107.107-.082.182-.42.168-.373-.015-.45-.09-.194-.193zm1.742-.002c.308-.08.812-.08 1.12 0 .31.08.057.146-.56.146-.616 0-.868-.065-.56-.145zm3.703.002c.23-.093.506-.08.613.025.106.107-.083.182-.42.168-.374-.015-.45-.09-.194-.193zm1.6 0c.23-.093.508-.08.614.025.106.107-.083.182-.42.168-.373-.015-.45-.09-.194-.193zm1.427-.003c.312-.08.744-.076.96.012.218.087-.037.154-.565.147-.53-.006-.706-.078-.395-.16zm-11.935-1.7c0-.64.16-.96.48-.96.32 0 .48.32.48.96 0 .64-.16.96-.48.96-.32 0-.48-.32-.48-.96zm.54-.06c-.104-.255-.18-.18-.195.194-.014.337.062.526.168.42.107-.106.118-.383.025-.614zm.773.14c-.023-.726.113-1.04.448-1.04.337 0 .467.31.437 1.04-.038.906-.065.937-.21.24l-.165-.8-.24.8c-.223.75-.24.734-.27-.24zm3.927.4c-.26-.674.094-1.44.664-1.44.296 0 .41.184.296.48-.1.264-.313.48-.47.48-.157 0-.286.16-.286.355 0 .194.216.27.48.17.265-.102.48-.046.48.125 0 .497-.962.357-1.164-.17zm1.485.355c0-.07.216-.21.48-.31.265-.102.48-.046.48.125 0 .17-.215.31-.48.31-.264 0-.48-.057-.48-.126zm3.875-.756c-.022-.726.114-1.04.45-1.04s.466.31.435 1.04c-.038.906-.065.937-.21.24l-.164-.8-.24.8c-.224.75-.24.734-.27-.24zm1.25-.08c0-.64.16-.96.48-.96.32 0 .48.32.48.96 0 .64-.16.96-.48.96-.32 0-.48-.32-.48-.96zm.538-.06c-.102-.255-.178-.18-.193.194-.014.337.062.526.168.42.106-.106.118-.383.025-.614zm-5.663-.42c0-.264.216-.48.48-.48.265 0 .48.216.48.48s-.215.48-.48.48a.482.482 0 0 1-.48-.48zm1.715-6.085c0-1.586.053-2.275.12-1.532.068.743.068 2.04.002 2.882-.066.842-.12.234-.122-1.35zm3.09 17.773c0-.498-.214-.64-.962-.64-.747 0-.96.142-.96.64 0 .5.213.64.96.64.748 0 .96-.14.96-.64zm2.24 0c0-.498-.213-.64-.96-.64s-.96.142-.96.64c0 .5.213.64.96.64s.96-.14.96-.64zm.962-6.245c0-4.377-.117-6.885-.32-6.885-.204 0-.32 2.508-.32 6.885s.116 6.886.32 6.886c.203 0 .32-2.51.32-6.886zm1.038 3.924c.074-1.414-.008-2.162-.236-2.162-.226 0-.328.872-.292 2.482.085 3.73.324 3.586.528-.32zm1.268.48l.064-2.482.11 2.482c.084 1.91.216 2.482.576 2.482s.467-.468.467-2.056c0-2.423-.196-3.068-.93-3.068-.994 0-1.312.716-1.312 2.946 0 1.722.1 2.178.48 2.178s.494-.518.545-2.482zm2.177-.24c0-1.3-.134-2.447-.298-2.55-.47-.288-.53.135-.408 2.793.146 3.14.705 2.946.705-.243zm.96-4.343c0-4.63-.11-6.997-.32-6.867-.197.122-.32 2.832-.32 7.064 0 4.365.117 6.867.32 6.867.205 0 .32-2.568.32-7.065zm-88.39 4.822c0-.498-.215-.64-.962-.64s-.96.142-.96.64c0 .5.213.64.96.64s.96-.14.96-.64zm2.24 0c0-.498-.213-.64-.96-.64-.748 0-.96.142-.96.64 0 .5.212.64.96.64.747 0 .96-.14.96-.64zm8.327 0c0-.498-.213-.64-.96-.64-.748 0-.96.142-.96.64 0 .5.212.64.96.64.747 0 .96-.14.96-.64zm1.922 0c0-.47-.214-.64-.8-.64-.588 0-.8.17-.8.64s.212.64.8.64c.586 0 .8-.17.8-.64zm10.89.016c0-.51-.267-.592-1.923-.592-1.644 0-1.92.084-1.92.583 0 .496.28.582 1.92.59 1.66.008 1.922-.07 1.922-.582zm3.2-.016c0-.498-.212-.64-.96-.64-.747 0-.96.142-.96.64 0 .5.213.64.96.64.748 0 .96-.14.96-.64zm2.243 0c0-.498-.214-.64-.962-.64-.747 0-.96.142-.96.64 0 .5.213.64.96.64.748 0 .96-.14.96-.64zm5.123 0c0-.57-.213-.64-1.92-.64-1.71 0-1.923.07-1.923.64 0 .57.214.64 1.922.64s1.92-.07 1.92-.64zm16.014 0c0-.505-.274-.59-1.922-.598-1.676-.008-1.922.07-1.922.598 0 .53.246.606 1.922.598 1.648-.008 1.922-.093 1.922-.598zm3.202 0c0-.498-.214-.64-.962-.64-.747 0-.96.142-.96.64 0 .5.213.64.96.64.748 0 .96-.14.96-.64zm2.24 0c0-.498-.212-.64-.96-.64-.747 0-.96.142-.96.64 0 .5.213.64.96.64.748 0 .96-.14.96-.64zm5.125.026c0-.536-.243-.615-1.92-.624-1.695-.008-1.923.065-1.923.615 0 .548.23.623 1.922.623 1.68 0 1.92-.077 1.92-.615zm10.89-.026c0-.498-.214-.64-.962-.64-.747 0-.96.142-.96.64 0 .5.213.64.96.64.748 0 .96-.14.96-.64zm3.202 0c0-.498-.214-.64-.96-.64-.748 0-.962.142-.962.64 0 .5.214.64.96.64.748 0 .962-.14.962-.64zm5.124 0c0-.498-.212-.64-.96-.64-.747 0-.96.142-.96.64 0 .5.213.64.96.64.748 0 .96-.14.96-.64zm2.243 0c0-.498-.214-.64-.96-.64-.748 0-.962.142-.962.64 0 .5.215.64.962.64s.96-.14.96-.64zm-81.987-1.6c0-.5-.214-.64-.96-.64-.748 0-.962.14-.962.64 0 .497.214.64.96.64.748 0 .962-.143.962-.64zm2.24 0c0-.5-.212-.64-.96-.64-.747 0-.96.14-.96.64 0 .497.213.64.96.64.748 0 .96-.143.96-.64zm5.126 0c0-.57-.214-.64-1.922-.64s-1.92.07-1.92.64c0 .568.212.64 1.92.64s1.922-.072 1.922-.64zm3.202 0c0-.5-.213-.64-.96-.64-.748 0-.96.14-.96.64 0 .497.212.64.96.64.747 0 .96-.143.96-.64zm1.922 0c0-.47-.214-.64-.8-.64-.588 0-.8.17-.8.64s.212.64.8.64c.586 0 .8-.17.8-.64zm10.89 0c0-.57-.215-.64-1.923-.64s-1.92.07-1.92.64c0 .568.212.64 1.92.64s1.922-.072 1.922-.64zm3.2 0c0-.5-.212-.64-.96-.64-.747 0-.96.14-.96.64 0 .497.213.64.96.64.748 0 .96-.143.96-.64zm7.367-.018c0-.48-.222-.623-.96-.623-.542 0-.972.175-.986.4-.02.32-.058.32-.187 0-.09-.22-.51-.4-.936-.4-.55 0-.774.18-.774.615 0 .537.244.616 1.922.624 1.694.007 1.92-.066 1.92-.616zm10.89.475c0-.34-.91-1.1-1.315-1.1-.244 0-.16.242.218.622.612.617 1.096.828 1.096.477zm5.124-.46c0-.504-.274-.59-1.922-.597-1.676-.008-1.922.07-1.922.598 0 .53.246.607 1.922.6 1.648-.01 1.922-.094 1.922-.6zm3.202 0c0-.497-.214-.64-.962-.64-.747 0-.96.143-.96.64 0 .5.213.642.96.642.748 0 .96-.143.96-.64zm2.24 0c0-.497-.212-.64-.96-.64-.747 0-.96.143-.96.64 0 .5.213.642.96.642.748 0 .96-.143.96-.64zm5.125 0c0-.504-.273-.59-1.92-.597-1.677-.008-1.923.07-1.923.598 0 .53.246.607 1.922.6 1.648-.01 1.92-.094 1.92-.6zm-25.3-.32c0-.175-.225-.32-.5-.32-.274 0-.41.145-.3.32.108.177.332.32.498.32.166 0 .302-.143.302-.32zm1.28 0c0-.175-.224-.32-.5-.32-.273 0-.41.145-.3.32.11.177.333.32.5.32.165 0 .3-.143.3-.32zm9.128 0c.11-.175-.027-.32-.3-.32-.276 0-.5.145-.5.32 0 .177.135.32.3.32.167 0 .39-.143.5-.32zm-45.637-1.12c0-.264-.29-.77-.64-1.12-.353-.353-.515-.64-.36-.64.154 0 .463.218.686.487.362.437.466.433.98-.03.34-.31.742-.417.986-.267.227.14.098-.242-.285-.85-.383-.606-.9-1.146-1.146-1.198-.46-.096-1.45 1.158-1.673 2.12-.068.296-.22.86-.334 1.258-.187.638-.096.72.787.72.674 0 1-.156 1-.48zm2.24.23c0-.136-.237-.59-.53-1.006-.506-.723-.55-.73-.96-.17-.696.952-.52 1.426.53 1.426.53 0 .96-.112.96-.25zm5.126-.326c0-.865-.657-1.41-1.178-.978-.233.193-.424.55-.424.793 0 .242-.144.44-.32.44-.176 0-.32-.198-.32-.44 0-.244-.19-.6-.424-.794-.52-.432-1.177.113-1.177.978 0 .49.283.576 1.92.576s1.922-.085 1.922-.576zm3.202.157c0-.23-.19-.678-.422-.995-.395-.54-.456-.543-.96-.04-.848.85-.672 1.455.422 1.455.578 0 .96-.167.96-.42zm12.81-.2c0-.343-.137-.708-.305-.812-.17-.104-.233-.383-.143-.62.09-.236-.203-.844-.654-1.35l-.82-.92-.8.897c-.81.908-1.09 1.72-.46 1.33.188-.116.55.056.8.382.436.56.48.562.797.032.184-.31.495-.562.69-.562.194 0 .115.264-.176.586-.292.322-.53.755-.53.96 0 .207-.145.376-.32.376-.177 0-.32-.2-.32-.44 0-.244-.192-.6-.425-.794-.522-.432-1.178.113-1.178.978 0 .49.284.576 1.92.576 1.69 0 1.923-.075 1.923-.62zm3.203.2c0-.23-.206-.698-.458-1.04-.51-.69-.93-.448-1.29.74-.192.638-.105.72.765.72.596 0 .982-.165.982-.42zm7.366-.18c0-.332-.227-.79-.504-1.02-.42-.348-.556-.34-.797.04-.16.253-.293.64-.296.86-.003.22-.15.4-.325.4-.176 0-.32-.198-.32-.44 0-.244-.19-.6-.424-.794-.52-.432-1.178.113-1.178.978 0 .49.285.576 1.922.576 1.666 0 1.92-.08 1.92-.6zm14.092.455c0-.398-.776-1.776-1-1.776-.297 0-.922 1.07-.922 1.58 0 .187.433.34.96.34.53 0 .962-.065.962-.145zm1.922-.456c0-.853-.74-1.414-1.225-.93-.683.684-.448 1.53.424 1.53.57 0 .8-.173.8-.6zm3.202.024c0-.564-.566-1.345-.974-1.345-.186 0-.948 1.427-.948 1.775 0 .08.432.145.96.145.712 0 .96-.15.96-.576zm2.09-.04c-.108-.337-.252-.903-.32-1.256-.14-.733-1.102-2.294-1.407-2.286-.298.007-.785.4-1.282 1.034-.382.488-.34.637.32 1.175.712.58.798.585 1.378.083.604-.522.606-.516.08.257-.796 1.172-.675 1.61.444 1.61.823 0 .95-.1.787-.615zm5.275.04c0-.865-.656-1.41-1.177-.978-.233.193-.424.55-.424.793 0 .242-.144.44-.32.44-.176 0-.32-.17-.32-.375 0-.206-.24-.64-.53-.96-.292-.323-.37-.587-.177-.587.195 0 .494.25.664.554.286.51.36.513.898.042.323-.282.78-.442 1.018-.357.592.214.024-.833-.912-1.68l-.7-.634-.79.917c-.434.505-.715 1.112-.624 1.348.09.237.027.516-.142.62-.168.104-.306.47-.306.81 0 .547.233.622 1.922.622 1.637 0 1.92-.085 1.92-.576zm8.647.235c0-.19-.154-.63-.342-.982-.274-.512-.435-.564-.8-.26-.774.64-.57 1.582.342 1.582.44 0 .8-.153.8-.34zm7.365-.06c-.004-.998-.703-2.76-1.312-3.312-.66-.597-.68-.593-1.458.312-.434.505-.715 1.112-.624 1.348.09.237.027.516-.14.62-.17.104-.308.47-.308.81 0 .547.233.622 1.922.622 1.325 0 1.92-.124 1.92-.4zm-2.496-.862c-.398-.54-.582-.98-.41-.98.173 0 .466.253.65.56.32.535.357.535.772 0 .24-.307.55-.56.69-.56.14 0 .035.253-.233.56-.27.31-.547.75-.617.98-.08.264-.396.056-.852-.56zm-77.727-.023c0-.29-.286-.466-.73-.45-.4.015-.674-.13-.607-.32.067-.19.36-.304.65-.253.29.052.526-.064.526-.26 0-.193.11-.285.24-.203.186.113.27-5.22.11-7.01-.016-.182-.317-.33-.67-.33-.448 0-.64.213-.64.712 0 .592-.203.73-1.2.812-1.168.096-1.205.14-1.3 1.464-.086 1.173.004 1.406.64 1.66l.74.298-.74.02c-.67.018-.73.15-.64 1.378.074 1.027.244 1.387.696 1.472.376.072.517-.018.378-.242-.12-.196-.368-.265-.55-.152-.204.126-.193-.053.03-.468.197-.37.662-.834 1.03-1.032.554-.296.792-.242 1.337.304.365.365.553.775.418.91-.135.136-.386-.005-.558-.31-.34-.61-1.09-.742-1.394-.25-.34.55 1.093 2.945 1.69 2.83.3-.058.545-.32.545-.58zm-2.723-5.76c0-.64.16-.96.48-.96.32 0 .48.32.48.96 0 .64-.16.96-.48.96-.32 0-.48-.32-.48-.96zm.54-.06c-.103-.256-.18-.18-.194.193-.014.338.062.527.168.42.107-.106.118-.382.025-.613zm.74.06c0-.64.162-.96.482-.96.32 0 .48.32.48.96 0 .64-.16.96-.48.96-.32 0-.48-.32-.48-.96zm.534-.4c-.09-.22-.162-.04-.162.4s.073.62.162.4c.09-.22.09-.58 0-.8zm46.164 6.244c-.06-.31-.323-.58-.584-.604-.26-.024-.606-.06-.765-.08-.16-.02-.054-.3.235-.618.405-.448.44-.668.146-.96-.208-.21-.53-.376-.716-.37-.426.012-1.595 1.59-1.178 1.59.17 0 .383-.18.474-.4.1-.242.25-.116.384.32.12.397.346.72.502.72.155 0 .283.217.283.48 0 .274.286.482.663.482.46 0 .63-.172.555-.56zm43.763-.373c.38-.734.638-.893 1.21-.75.697.175.69.146-.147-.705-.91-.925-2.094-.933-1.72-.01l.378.933c.135.33.01.41-.444.293-.676-.177-1.186.327-.862.852.373.602 1.105.32 1.587-.613zm1.617.292c0-.26-.252-.52-.56-.58-.394-.076-.56.097-.56.58 0 .482.166.655.56.58.308-.06.56-.32.56-.58zm-80.978-.485c.265-.266.615-.4.777-.3.59.363.274-.485-.506-1.36l-.8-.9-.8.9c-.774.868-1.098 1.724-.517 1.365.156-.096.462.04.68.302.49.592.568.59 1.166-.006zm26.5-.03c.113-.293.403-.435.676-.33.706.27.58-.282-.297-1.3l-.774-.9-.828.777c-.775.727-1.188 1.887-.526 1.478.165-.103.49.027.72.29.546.617.787.614 1.03-.015zm-16.28-.09c-.095-.157.032-.456.284-.665.25-.21.38-.585.282-.837-.216-.563-1.284-.604-1.473-.056-.172.5.408 1.84.796 1.84.157 0 .208-.126.11-.283zm-1.142-.678c0-.176-.177-.32-.393-.32-.216 0-.004-.39.472-.864l.864-.865.814.763c.588.554.704.832.418 1.01-.217.133-.282.354-.146.49.523.524.845-.8.85-3.495.003-2.28-.085-2.803-.476-2.803-.3 0-.48-.302-.48-.8 0-.44-.16-.8-.358-.8-.21 0-.294.332-.205.8.085.44.03.8-.122.8s-.286-.396-.3-.88c-.02-.78-.053-.808-.297-.24-.235.547-.278.56-.297.08-.03-.783-.662-.706-.662.08 0 .388.22.65.56.663.476.02.464.06-.08.28-.352.142-.75.195-.88.12-.286-.166-.327 5.064-.046 5.796.214.56.766.694.766.188zm-.262-4.378c.11-.932.902-1.453.902-.594 0 .29-.144.437-.32.328-.176-.11-.32.014-.32.274s.18.546.4.634c.232.094.155.173-.18.187-.448.02-.56-.174-.482-.83zm1.223.603c0-.138.287-.252.64-.252.352 0 .64.115.64.253s-.288.252-.64.252c-.353 0-.64-.114-.64-.252zm.208-1.203c.21-.547.8-.48.998.113.07.212-.165.38-.53.38-.46 0-.6-.147-.468-.493zm48.55 4.897c.238-.648-.09-1.2-.712-1.2-.71 0-1.05.752-.56 1.24.477.477 1.088.458 1.27-.04zm1.134-2.934c.05-1.718-.022-3.057-.16-2.977-.14.08-.54.03-.893-.11-.545-.22-.557-.262-.08-.28.363-.016.556-.276.55-.744-.01-.703-.023-.705-.48-.1-.403.532-.472.545-.472.09 0-.34-.172-.465-.48-.346-.264.1-.48.024-.48-.17 0-.196.16-.355.354-.355.2 0 .27-.246.16-.56-.186-.533-.175-.533.24 0 .24.31.746.56 1.122.56.646 0 .686-.154.686-2.68 0-3.154-.238-4.585-.797-4.8-.223-.085-.563.193-.757.618-.193.425-.247.757-.12.737.926-.14 1.198.13 1.252 1.243.057 1.155.044 1.17-.357.43-.396-.733-.43-.74-.76-.16-.337.596-.356.595-.834-.03-.45-.59-.49-.595-.498-.062-.006.318-.135.502-.288.408-.333-.206-.078-1.788.29-1.788.356 0 1.59-2.05 1.59-2.646 0-.727-.945-.97-1.215-.31-.125.304-.43.597-.678.65-.37.08-.365-.032.038-.64.923-1.392 2.68-.948 2.296.58-.21.846.336 1.065.645.258.107-.28.195-1.143.195-1.922V53.77h-1.237c-1.13 0-1.224-.064-1.09-.762.08-.42-.012-.86-.205-.98-.225-.138-.35.136-.35.764 0 .657-.16.98-.48.98-.356 0-.48.37-.48 1.414 0 2.04.227 2.464 1.195 2.22.607-.15.77-.09.657.243-.083.244-.443.403-.8.352-.818-.117-1.053.912-1.053 4.617 0 2.17.09 2.68.48 2.68.3 0 .48.303.48.8 0 .84.47 1.09.75.402.096-.24.17-.175.186.16.017.383-.215.56-.73.56-.635 0-.733-.13-.604-.8.088-.468.003-.8-.206-.8-.23 0-.357.846-.357 2.4v2.403l1.2.054 1.202.053-1.202.125c-1.144.12-1.2.18-1.2 1.287v1.162l.957-.92.96-.917.802.754c.784.737 1.12 1.517.482 1.123-.177-.11-.32-.033-.32.168 0 .2.18.306.4.233.274-.09.428-1.11.492-3.255zm-1.454-.73c.31-.08.56-.36.56-.62 0-.263-.143-.388-.32-.28-.175.11-.32-.038-.32-.327 0-.86.792-.338.902.593.086.717-.017.85-.64.817-.543-.027-.59-.076-.182-.183zm-1.138-.643c-.318-.083-.522-.318-.454-.523.193-.578.96-.44 1.053.187.044.308.058.543.03.523-.03-.02-.312-.105-.63-.187zm21.235 4.414c0-.16-.18-.356-.4-.433-.288-.1-.23-.332.21-.827.793-.894 1.283-.867 2.054.114.346.44.71.8.807.8.098 0 .15-1.26.114-2.802-.057-2.568-.116-2.802-.703-2.802-.46 0-.67-.248-.742-.88-.056-.486-.236-.882-.4-.882-.165 0-.317.397-.337.882l-.038.88-.203-.8c-.11-.443-.453-.82-.762-.845-.48-.038-.564.262-.585 2.08-.014 1.17-.05 2.776-.08 3.57-.052 1.345.264 2.2.825 2.23.132.005.24-.12.24-.283zm.24-2.815a4.56 4.56 0 0 1 1.44 0c.398.076.073.138-.72.138-.792 0-1.116-.062-.72-.14zm-.56-1.696c0-.64.16-.96.48-.96.32 0 .48.32.48.96 0 .64-.16.96-.48.96-.32 0-.48-.32-.48-.96zm.54-.06c-.103-.256-.18-.18-.195.193-.014.338.062.527.168.42.107-.106.118-.382.026-.613zm.74.06c0-.64.16-.96.48-.96.32 0 .482.32.482.96 0 .64-.16.96-.48.96-.32 0-.48-.32-.48-.96zm.54-.06c-.102-.256-.178-.18-.194.193-.013.338.063.527.17.42.106-.106.117-.382.025-.613zm-49.7 3.583c-.874-.376-1.12-.376-1.12 0 0 .176.396.31.88.297.78-.02.808-.053.24-.297zm9.32-.726c.13-.128-.374-.234-1.118-.234-.745 0-1.275.127-1.18.283.206.33 1.954.295 2.297-.05zm-3.715-1.195c0 .176.216.32.48.32.363 0 .48-.39.48-1.6s-.117-1.602-.48-1.602c-.332 0-.497.37-.534 1.2l-.054 1.202-.122-1.142c-.122-1.14-.125-1.14-1.736-1.154l-1.614-.014.11 1.394c.062.767.01 1.395-.112 1.395-.123 0-.27-.6-.323-1.336-.147-2-.9-1.997-.9.003v1.604l2.212-.056c.995-.21 2-.217 2.593-.215zm2.882-1.144c0-.336-.91-1.097-1.314-1.097-.244 0-.16.242.218.622.612.617 1.096.827 1.096.476zm-8.326-.83c0-.147-.513-.267-1.14-.267-.627 0-1.066.12-.975.267.092.147.605.267 1.14.267.537 0 .976-.12.976-.267zm-.96-.587c-230.45 8.697-115.226 4.348 0 0zm-1.603-1.44c0-.442-.12-.802-.266-.802-.206 0-.258.99-.08 1.522.126.38.346-.08.346-.72zm13.45-.233c0-.435-.15-.58-.48-.453-.265.102-.48.01-.48-.208 0-.27.455-.358 1.442-.28l1.44.115V63.11c0-1.4-.144-2.344-.38-2.49-.21-.13-.44-.058-.514.16-.095.288-.298.246-.738-.153-.54-.49-.608-.493-.608-.038 0 .28-.118.583-.262.672-.144.09-.203-.246-.13-.744.074-.498-.024-1.004-.218-1.123-.247-.153-.35.962-.35 3.775 0 3.835.025 3.986.64 3.825a.855.855 0 0 0 .64-.805zm11.53.232c0-.44-.143-.8-.32-.8-.357 0-.438 1.055-.106 1.387.353.352.427.25.427-.588zm12.49-.18c0-.34-.143-.62-.32-.62-.175 0-.32.368-.32.82 0 .464.14.733.32.62.177-.11.32-.477.32-.82zm14.955-.214c-.08-.312-.153-.135-.16.394-.005.528.06.783.148.566.088-.216.093-.65.012-.96zm-77.085.234c0-.353-.144-.64-.32-.64-.176 0-.32.287-.32.64 0 .352.144.64.32.64.176 0 .32-.288.32-.64zm3.095-.4c-.09-.22-.162-.04-.162.4s.073.62.162.4c.088-.22.088-.58 0-.8zm1.928.34c-.102-.256-.178-.18-.194.193-.013.338.062.527.17.42.105-.106.116-.382.024-.613zm3.624.06c0-.353-.144-.64-.32-.64-.176 0-.32.287-.32.64 0 .352.144.64.32.64.176 0 .32-.288.32-.64zm3.843 0c0-.353-.144-.64-.32-.64-.176 0-.32.287-.32.64 0 .352.144.64.32.64.176 0 .32-.288.32-.64zm2.564-3.283c.002-4.308.29-5.83 1.306-6.922.87-.933 1.54-.78 2.444.565.818 1.213.935 2.184.328 2.718-.477.42-.376 5.96.108 5.96.163 0 .326-1.332.363-2.962l.066-2.962.106 2.962c.058 1.63.233 2.963.388 2.963s.33-1.79.388-3.98c.092-3.45.196-4.102.78-4.884.91-1.22 1.513-1.268 2.5-.204l.83.896V55.45c0-1.28-.115-1.68-.48-1.68-.297 0-.48-.3-.48-.78 0-.43-.165-.883-.365-1.007-.252-.155-.318.085-.216.782l.148 1.006h-13.02l.005 1.523c.005 1.575.416 2.648.85 2.215.135-.137.073-.356-.14-.487-.29-.18-.26-.414.12-.96.636-.907 1.638-.795 2.33.26.285.433.354.687.155.564-.512-.313-1.287 1.61-.832 2.066.186.186.495.24.686.123.48-.296.44-1.137-.052-1.143-.267-.003-.24-.106.078-.307.75-.475.942.523.984 5.12.02 2.288.168 4.16.328 4.16s.292-1.766.293-3.924zm1.92 3.282c0-.353-.144-.64-.32-.64-.176 0-.32.287-.32.64 0 .352.144.64.32.64.176 0 .32-.288.32-.64zm1.6 0c0-.353-.143-.64-.32-.64-.175 0-.32.287-.32.64 0 .352.145.64.32.64.177 0 .32-.288.32-.64zm3.524 0c0-.353-.143-.64-.32-.64-.175 0-.32.287-.32.64 0 .352.145.64.32.64.177 0 .32-.288.32-.64zm17.94.24c.004-.267.11-.24.316.08.242.374.312.286.316-.4.003-.568.176-.88.485-.88.377 0 .494-.5.544-2.323l.065-2.323.11 2.322c.06 1.276.248 2.32.417 2.32.168 0 .328-1.152.354-2.56.027-1.41.063-2.743.08-2.964.018-.22-.2-.383-.484-.363-.442.032-.474-.154-.22-1.28.298-1.335 1.34-2.76 2.017-2.76.507 0 1.92 1.548 1.655 1.813-.118.118-.214.038-.214-.177 0-.217-.144-.305-.32-.196-.53.327-.36.8.283.8.81 0 .99.828.994 4.564l.004 3.123h1.442c.926 0 1.45-.142 1.467-.4.02-.32.056-.32.185 0 .09.22.366.4.616.4.333 0 .47-.49.508-1.84l.054-1.842.213 1.92c.196 1.773.216 1.678.266-1.218.035-1.974-.06-3.07-.258-2.95-.17.107-.26.65-.194 1.21.11.95.09.976-.34.388-.396-.54-.503-.562-.773-.15-.27.412-.365.39-.68-.147-.365-.62-.37-.62-.64 0-.22.508-.25.46-.153-.246.087-.636-.043-.925-.476-1.062-.327-.104-.59-.36-.588-.568.015-.787 1.27-3.12 1.785-3.317.827-.317 1.584.348 1.48 1.3-.067.604.055.838.44.838.458 0 .47-.074.09-.542-.298-.368-.31-.465-.038-.302.3.18.4-.167.4-1.378v-1.62h-13.07l.196-.72c.162-.587.22-.617.315-.16.173.832 1.098.712.973-.127-.072-.482-.366-.714-.983-.78-.782-.08-.88.014-.88.848 0 .62-.164.938-.482.938-.354 0-.48.372-.48 1.416 0 .78.088 1.643.194 1.922.297.774.867.603.657-.197-.442-1.69 1.302-2.05 2.41-.496.668.936.745 1.41.77 4.723.022 2.76 0 2.986-.09.903l-.12-2.78-1.19.183c-1.44.222-1.573.318-1.102.79.274.273.496.257.884-.065.815-.677 1.1.126 1.105 3.12.005 2.21-.07 2.604-.474 2.45-.334-.13-.48.02-.48.49 0 .37.143.674.32.674.176 0 .322-.18.325-.4zm7.156-4.244c0-1.585.053-2.274.12-1.53.067.743.068 2.04.002 2.882-.066.842-.12.234-.122-1.352zm-3.637 4.004c0-.353-.145-.64-.32-.64-.177 0-.322.287-.322.64 0 .352.145.64.32.64.177 0 .32-.288.32-.64zm3.522 0c0-.353-.144-.64-.32-.64-.177 0-.32.287-.32.64 0 .352.143.64.32.64.176 0 .32-.288.32-.64zm9.506-.06c-.102-.256-.178-.18-.193.193-.014.338.062.527.168.42.106-.106.118-.382.025-.613zm1.915-.34c-.09-.22-.16-.04-.16.4s.07.62.16.4c.09-.22.09-.58 0-.8zm7.154.4c0-.353-.144-.64-.32-.64-.176 0-.32.287-.32.64 0 .352.144.64.32.64.176 0 .32-.288.32-.64zm4.484 0c0-.353-.143-.64-.32-.64-.176 0-.32.287-.32.64 0 .352.144.64.32.64.177 0 .32-.288.32-.64zm2.563 0c0-.353-.144-.64-.32-.64-.177 0-.32.287-.32.64 0 .352.143.64.32.64.176 0 .32-.288.32-.64zm5.343-.06c-.102-.256-.178-.18-.194.193-.014.338.062.527.17.42.105-.106.116-.382.024-.613zm-50.66-.26c-.25-.407-1.453-.407-2.082 0-.35.226-.11.31.9.315.84.003 1.302-.12 1.182-.316zm8.967 0c-.11-.177-.613-.32-1.12-.32-.51 0-1.013.143-1.122.32-.12.193.324.32 1.122.32s1.24-.127 1.12-.32zm16.173.18c0-.08-.144-.232-.32-.34-.176-.11-.32-.046-.32.14 0 .187.144.34.32.34.176 0 .32-.064.32-.14zm5.445 0c0-.34-.614-.482-.797-.186-.11.18.024.326.298.326.276 0 .5-.064.5-.14zm15.694-.18a.32.32 0 0 0-.32-.32.32.32 0 0 0-.32.32c0 .176.143.32.32.32a.32.32 0 0 0 .32-.32zm5.444 0a.32.32 0 0 0-.32-.32.32.32 0 0 0-.32.32c0 .176.144.32.32.32a.32.32 0 0 0 .32-.32zm-70.458-.582v-3.072c0-1.834-.13-3.072-.32-3.072-.176 0-.337.54-.357 1.2-.02.66-.105.942-.187.624-.172-.662-.94-.532-.812.138.048.25-.124.173-.397-.177-.67-.858-.936-.443-1.18 1.845l-.212 1.976.08-2.24c.043-1.234.14-2.44.21-2.683.073-.243-.047-.507-.268-.588-.304-.112-.394.64-.375 3.162.014 1.82.086 3.165.16 2.99 1.263-.354 2.345-.184 3.658-.102zm-25.62-2.78c0-1.603-.133-2.724-.32-2.724-.19 0-.32 1.12-.32 2.723 0 1.6.13 2.72.32 2.72.187 0 .32-1.12.32-2.72zm1.008.16c.027-1.41.063-2.73.08-2.937a.504.504 0 0 0-.327-.493c-.245-.082-.376.84-.415 2.935-.037 1.957.064 3.056.28 3.056.202 0 .354-1.016.383-2.56zm1.233.16c0-1.923-.095-2.403-.48-2.403-.384 0-.48.48-.48 2.402 0 1.92.096 2.4.48 2.4.385 0 .48-.48.48-2.4zm1.234-.375c-.076-1.846-.248-2.82-.513-2.91-.663-.22-.448-.612.322-.585.438.016.72-.162.72-.455 0-.266-.284-.48-.64-.48-.352 0-.758-.144-.902-.32-.143-.176-.174-.01-.07.366.116.412 0 .882-.29 1.17-.395.396-.406.546-.06.832.23.192.48.29.55.217.073-.073.085 1.01.027 2.404-.09 2.203-.034 2.537.433 2.537.47 0 .524-.344.424-2.775zm.924-.27c-.03-1.956-.167-3.008-.38-2.937-.185.06-.32.28-.304.485.018.206.054 1.527.08 2.936.027 1.408.184 2.56.35 2.56.17 0 .28-1.32.254-3.046zm1.046.324c0-1.603-.132-2.724-.32-2.724-.19 0-.32 1.12-.32 2.723 0 1.6.13 2.72.32 2.72.188 0 .32-1.12.32-2.72zm.96 0c0-1.5.01-2.828.025-2.956.012-.127-.132-.284-.322-.347-.23-.076-.344.908-.344 2.955 0 1.832.13 3.07.32 3.07s.32-1.122.32-2.723zm1.226.188c-.057-1.393-.013-2.475.1-2.405.112.07.38-.088.6-.35.332-.4.267-.477-.408-.477-.98 0-1.187.623-1.193 3.603-.005 1.756.09 2.16.5 2.16.425 0 .488-.395.4-2.532zm1.337.477c0-1.13-.088-2.282-.194-2.56-.413-1.076-.767-.045-.767 2.233 0 1.905.096 2.383.48 2.383.377 0 .48-.44.48-2.055zm.96-1.013c0-2.313-.098-3.037-.4-2.936-.22.073-.386.302-.368.507.016.206.052 1.527.08 2.936.07 3.712.687 3.256.687-.508zm7.046.347c0-1.5.01-2.828.024-2.956.013-.127-.13-.284-.32-.347-.23-.076-.344.908-.344 2.955 0 1.832.13 3.07.32 3.07.188 0 .32-1.122.32-2.723zm1.215.425c-.06-1.482-.236-2.344-.494-2.43-.297-.097-.4.497-.4 2.297 0 1.976.092 2.43.494 2.43.408 0 .478-.4.4-2.297zm1.235-.186c-.218-3.326-.204-3.284-1.1-3.284-.66 0-.724.077-.392.477.22.262.49.42.602.35.112-.07.153 1.013.09 2.406-.1 2.205-.046 2.53.424 2.53.474 0 .52-.303.377-2.48zm.73-1.066c-.04-2.86-.144-3.583-.54-3.735-.275-.106-.67.055-.896.366-.384.524-.423.525-.715.002-.196-.35-.508-.476-.856-.343-.828.318-.4 1.005.656 1.05 1.808.078 1.982.124 1.968.52-.063 1.684.12 5.685.258 5.685.096 0 .152-1.596.125-3.546zm1.07.833c.016-1.592-.106-2.577-.33-2.65-.242-.082-.35.755-.34 2.637.01 1.65.142 2.714.33 2.65.172-.056.325-1.243.34-2.637zm5.518-.01c0-1.963-.11-2.72-.4-2.72-.288 0-.4.757-.4 2.72 0 1.966.112 2.724.4 2.724.29 0 .4-.757.4-2.722zm6.246 0c0-1.496.01-2.825.024-2.953.014-.128-.13-.284-.32-.347-.23-.076-.344.908-.344 2.955 0 1.832.13 3.07.32 3.07.188 0 .32-1.122.32-2.724zm1.215.427c-.06-1.48-.235-2.343-.493-2.428-.297-.098-.4.496-.4 2.296 0 1.976.092 2.43.494 2.43.41 0 .48-.4.4-2.298zm1.282 0c-.06-1.48-.236-2.343-.494-2.428-.297-.098-.4.496-.4 2.296 0 1.976.092 2.43.494 2.43.41 0 .478-.4.4-2.298zm6.15-.746c0-2.702-.25-3.61-.766-2.775-.09.146-.64.202-1.22.124-1.02-.138-1.037-.123-.483.454.35.367.66.473.8.277.402-.563.956-.478 1.126.17.178.688-.26.878-.53.23-.12-.284-.313-.22-.668.22-.46.572-.5.576-.5.055 0-.313-.18-.51-.4-.437-.242.08-.48 1.013-.6 2.35l-.198 2.216.025-2.79c.012-1.533-.078-2.89-.203-3.014-.125-.125-.227 1.166-.227 2.87V65.3h3.844V62.26zm.962.32c0-1.6-.132-2.722-.32-2.722s-.32 1.12-.32 2.722c0 1.602.132 2.723.32 2.723s.32-1.12.32-2.722zm1.2.08c.142 3.488.722 3.424.722-.08 0-2.69-.01-2.722-.8-2.722-1.32 11.99-.217-4.416.077 2.803zm1.737-1.28c.095-3.494.188-4.038.85-4.965.407-.572 1.01-1.04 1.338-1.04.33 0 .93.468 1.34 1.04.66.927.754 1.47.848 4.965.165 6.086.695 4.68.695-1.842V53.77h-5.764v5.766c0 6.523.53 7.928.695 1.842zm4.11 1.2c0-3.526-.24-4.643-1-4.643-.84 0-.753.92.12 1.27.396.16.535.3.308.31-.307.016-.327.178-.08.642.222.413.226.688.012.82-.176.11-.325-.063-.33-.38-.01-.535-.05-.53-.5.06-.484.634-.492.634-.843.014-.352-.62-.356-.62-.574 0-.18.51-.248.433-.372-.414-.144-.986.044-1.188 1.03-1.1.338.03.164-1.208-.19-1.344-.973-.373-1.252.427-1.372 3.933l-.12 3.52c3.01-.316 3.91-.13 3.912-2.687zm1.922 0c0-1.6-.132-2.722-.32-2.722-.19 0-.32 1.12-.32 2.722 0 1.602.13 2.723.32 2.723.188 0 .32-1.12.32-2.722zm1.92 0c0-1.6-.13-2.722-.32-2.722-.187 0-.32 1.12-.32 2.722 0 1.602.133 2.723.32 2.723.19 0 .32-1.12.32-2.722zm7.367.294c0-1.8-.104-2.394-.4-2.296-.26.085-.435.947-.496 2.428-.077 1.898-.008 2.297.4 2.297.403 0 .495-.452.495-2.428zm1.28.027c0-1.923-.096-2.403-.48-2.403s-.48.48-.48 2.402c0 1.92.096 2.4.48 2.4s.48-.48.48-2.4zm.96-.668c0-2.047-.114-3.03-.343-2.955-.19.063-.334.22-.32.347.013.128.024 1.457.024 2.955 0 1.6.132 2.72.32 2.72.192 0 .32-1.236.32-3.068zm6.376.148c-.035-1.613-.178-2.508-.39-2.437-.268.09-.388 2.708-.236 5.136.01.142.165.166.348.053.192-.12.31-1.28.278-2.753zm5.41.364c.054-1.34-.05-2.49-.24-2.68-.234-.234-.34-.195-.35.13-.14 4.117-.105 5.094.174 5 .177-.057.363-1.16.416-2.45zm.637-3.352c-.138-.167-.227 1.13-.197 2.882l.056 3.187.197-2.88c.107-1.587.082-3.02-.057-3.188zm1.283 3.427c-.052-1.38-.236-2.483-.414-2.483s-.362 1.103-.414 2.482c-.08 2.09-.013 2.48.414 2.48s.493-.39.414-2.48zm1.347.08c0-2.003-.086-2.403-.52-2.403-.425 0-.447-.087-.12-.48.338-.408.263-.48-.49-.48-.842 0-.862.03-.36.585.39.43.53 1.194.53 2.882 0 1.828.098 2.297.48 2.297.384 0 .48-.48.48-2.4zm.96-.668c0-2.047-.114-3.03-.343-2.955-.19.063-.334.22-.32.347.013.128.024 1.457.024 2.955 0 1.6.132 2.72.32 2.72.19 0 .32-1.236.32-3.068zm7.095.507c.027-1.41.063-2.732.08-2.937.018-.206-.148-.434-.368-.507-.302-.1-.4.623-.4 2.936 0 3.764.618 4.22.688.507zm1.233.132c0-1.8-.103-2.394-.4-2.296-.258.085-.433.947-.494 2.43-.078 1.896-.008 2.295.4 2.295.403 0 .495-.452.495-2.428zm1.282.027c0-1.923-.096-2.403-.48-2.403-.385 0-.48.48-.48 2.402 0 1.92.095 2.4.48 2.4.384 0 .48-.48.48-2.4zm.96-.668c0-2.047-.114-3.03-.343-2.955-.19.063-.335.22-.322.347.014.128.024 1.457.024 2.955 0 1.6.132 2.72.32 2.72.192 0 .32-1.236.32-3.068zm.962.347c0-1.603-.132-2.724-.32-2.724-.19 0-.32 1.12-.32 2.723 0 1.6.13 2.72.32 2.72.188 0 .32-1.12.32-2.72zm.96 0c0-1.5.01-2.828.024-2.956.014-.128-.114-.278-.283-.334-.182-.06-.305 1.142-.3 2.954.002 1.68.13 3.057.282 3.057.153 0 .277-1.224.277-2.72zm1.215.24c-.053-1.38-.237-2.483-.415-2.483s-.362 1.103-.414 2.482c-.077 2.09-.012 2.48.415 2.48s.493-.39.414-2.48zm1.347.08c0-2.003-.087-2.403-.52-2.403-.426 0-.447-.087-.12-.48.337-.408.263-.48-.492-.48-.84 0-.86.03-.36.585.39.43.53 1.194.53 2.882 0 1.828.1 2.297.48 2.297.385 0 .482-.48.482-2.4zm.96-.668c0-2.047-.114-3.03-.344-2.955-.19.063-.333.22-.32.347.013.128.024 1.457.024 2.955 0 1.6.132 2.72.32 2.72.19 0 .32-1.236.32-3.068zm.96.347c0-1.603-.13-2.724-.32-2.724-.188 0-.32 1.12-.32 2.723 0 1.6.132 2.72.32 2.72.19 0 .32-1.12.32-2.72zm-71.81-2.664c.07-.21-.167-.38-.532-.38-.46 0-.6.148-.467.494.21.547.8.48.998-.114zm5.443 0c.077-.23-.213-.38-.74-.38-.742 0-.808.07-.458.49.446.54 1 .487 1.198-.11zm5.518-.094c0-.157-.36-.286-.8-.286-.833 0-1.1.483-.4.727.514.18 1.2-.072 1.2-.44zm13.058.094c.07-.212-.168-.38-.54-.38-.666 0-.866.336-.448.754.297.297.832.094.988-.374zm12.91-.326c-.9-.132-1.283.206-.67.586.29.177.636.14.926-.098.39-.322.35-.398-.257-.488zm5.738.427c.337-.406.27-.48-.43-.48-.607 0-.78.13-.646.48.1.264.295.48.43.48.136 0 .427-.216.646-.48zm5.445 0c.336-.407.268-.48-.442-.48-.812 0-1.07.305-.627.746.333.332.635.256 1.07-.266zm10.494-.1c.07-.213-.168-.38-.54-.38-.666 0-.865.335-.448.753.297.297.832.094.988-.374zm5.518-.095c0-.157-.378-.286-.84-.286-.695 0-.774.08-.457.46.39.47 1.297.348 1.297-.174zm-88.393-.927c0-.176-.064-.32-.142-.32-.078 0-.23.144-.34.32-.108.177-.044.32.142.32.187 0 .34-.143.34-.32zm1.92-.32c0-.663-.772-.884-1.12-.32-.268.434.094.96.66.96.253 0 .46-.288.46-.64zm7.607.08c.21-.632-.92-.898-1.345-.316-.333.454-.415.44-.783-.15-.37-.59-.46-.607-.9-.166-.27.27-.403.634-.294.81.285.46 3.16.306 3.32-.18zm11.93.42c0-.338-.615-.48-.798-.185-.11.18.023.326.298.326.274 0 .5-.064.5-.14zm2.01-.503c.744-.87.7-.997-.288-.818-1.052.19-1.21.348-.972.968.254.663.598.622 1.26-.15zm1.776-.103c.06-.31-.1-.535-.38-.535-.596 0-.955.522-.673.977.29.47.93.2 1.053-.443zm1.572.552c-.107-.106-.383-.118-.614-.025-.255.102-.18.178.194.193.338.014.527-.06.42-.168zm9.294-.367c.22-.667-.928-.888-1.383-.265-.384.525-.43.52-.754-.087-.47-.88-.448-.95.35-1.067.857-.126 1.142-.832.445-1.1-.32-.12-.833.122-1.352.64-.46.462-.656.838-.434.838.317 0 .32.1.016.467-.213.257-.303.604-.2.77.278.45 3.153.28 3.31-.194zm3.296-.107c.197-.368.274-.752.172-.854-.103-.103-.186-.023-.186.177 0 .203-.23.277-.513.168-.63-.24-1.222.575-.672.924.597.38.813.305 1.198-.414zm1.85-.08c.07-.36-.112-.533-.56-.533-.365 0-.664.192-.664.427 0 .98 1.038 1.07 1.225.107zm3.124.466c-.19-.305-2.012-.24-2.335.084-.11.11.41.198 1.155.198.745 0 1.275-.127 1.18-.282zm8.84.003c-.447-.283-1.905-.222-2.22.094-.102.102.45.184 1.23.18.886-.002 1.255-.104.99-.273zm2.32-.53c.526-.802.523-.808-.322-.655-1.064.193-1.222.348-.984.97.274.712.7.61 1.307-.316zm1.856.53c.127-.023.148-.258.046-.522-.255-.664-.99-.602-1.373.116-.314.585-.08.656 1.326.406zm3.727-1.058c.606-1.136.647-1.403.273-1.778-.375-.375-.505-.364-.865.07-.32.385-.332.6-.052.88.548.547.452.883-.25.883-.704 0-1.116.482-.82.96.402.652 1.02.285 1.715-1.016zm1.588.612c.072-.372-.095-.557-.503-.557-.784 0-1.04.265-.815.847.238.62 1.183.412 1.32-.29zm3.18.043l.18-.682.548.728c.574.76 1.277.64 1.277-.22 0-.342-.202-.447-.64-.333-.353.093-.64.035-.64-.128 0-.164-.397-.203-.882-.087-1.116.268-1.16.31-.93.91.273.71.88.606 1.088-.188zm12.734.04c0-.26-.252-.52-.56-.58-.394-.075-.56.098-.56.58 0 .483.166.656.56.58.308-.06.56-.32.56-.58zm9.007-.303c.023-.45-.02-.653-.095-.45-.074.2-.4.296-.724.21-.64-.166-1.137.352-.823.86.107.172.512.288.9.256.515-.043.715-.28.744-.876zm1.57.61c.115-.184.034-.545-.18-.8-.305-.37-.297-.468.037-.468.326 0 .337-.087.045-.38-.482-.48-.654-.298-.907.964-.16.797-.095 1.018.298 1.018.276 0 .595-.15.708-.335zm5.474-.046c.098-.16.004-.5-.21-.755-.26-.313-.272-.466-.036-.466.192 0 .264-.222.16-.494-.105-.272-.266-.418-.36-.325-.092.093-.342-.068-.554-.358-.238-.326-.598-.447-.94-.316-.73.282-.472.987.407 1.116.826.122.866.364.2 1.198-.488.61-.494.61-.317-.044.16-.586.066-.65-.784-.524-.868.127-1.245.643-.798 1.09.287.287 3.044.184 3.232-.12zm1.404.24c0-.08-.144-.232-.32-.34-.176-.11-.32-.046-.32.14 0 .187.144.34.32.34.176 0 .32-.064.32-.14zm-96.08-3.063c0-1.28-.136-2.242-.32-2.242-.182 0-.32.962-.32 2.243 0 1.28.138 2.242.32 2.242.184 0 .32-.96.32-2.242zm5.446 0c0-1.28-.137-2.242-.32-2.242-.184 0-.32.962-.32 2.243 0 1.28.136 2.242.32 2.242.183 0 .32-.96.32-2.242zm13.402.1c-.315-.378-.447-.382-.806-.023-.345.345-.353.59-.04 1.255l.39.826.416-.8c.32-.618.33-.907.04-1.256zm2.392-.18c-.003-1.1-.135-2.002-.294-2.002-.307 0-.48 3.23-.21 3.933.31.81.508.053.504-1.93zm5.463 1.574a66.504 66.504 0 0 1-.08-2.135c-.062-2.507-.68-1.902-.68.667 0 1.672.106 2.233.4 2.135.22-.074.383-.374.36-.668zm15.894-1.494c0-1.28-.137-2.242-.32-2.242s-.32.962-.32 2.243c0 1.28.137 2.242.32 2.242s.32-.96.32-2.242zm1.044-.08c-.148-2.853-.723-2.79-.723.08 0 2.178.022 2.242.8 2.242 1.5-8.603.274 4.454-.077-2.322zm7.603 2.322c-235.786 15.102-117.892 7.55 0 0zm1.282-2.242c0-1.28-.137-2.242-.32-2.242s-.32.962-.32 2.243c0 1.28.137 2.242.32 2.242s.32-.96.32-2.242zm.96 0c0-1.28-.136-2.242-.32-2.242-.182 0-.32.962-.32 2.243 0 1.28.138 2.242.32 2.242.184 0 .32-.96.32-2.242zm16.014 0c0-1.28-.137-2.242-.32-2.242-.348 0-.357.047-.457 2.403-.074 1.726.007 2.082.475 2.082.166 0 .3-1.01.3-2.242zm5.344.08c-.032-1.19-.197-2.126-.366-2.08-.168.043-.29.907-.27 1.92.05 2.358.043 2.322.396 2.322.165 0 .273-.973.24-2.162zm15.794-.08c0-1.28-.138-2.242-.32-2.242-.184 0-.32.962-.32 2.243 0 1.28.136 2.242.32 2.242.182 0 .32-.96.32-2.242zm5.444 0c0-1.28-.137-2.242-.32-2.242s-.32.962-.32 2.243c0 1.28.137 2.242.32 2.242s.32-.96.32-2.242zm-47.724.56c.003-.348-.237-.56-.636-.56-.72 0-.875.918-.258 1.535.446.446.886-.034.894-.975zm-46.92.708c-.134-.213.075-.26.585-.133.96.24 1.445-.368.804-1.01-.392-.39-.58-.32-1.38.512-.745.778-.816.964-.365.964.307 0 .466-.15.353-.333zm2.57.014c-.11-.176-.073-.32.08-.32.155 0 .243-.613.197-1.36-.045-.75-.09-1.872-.1-2.495-.014-.914-.14-1.133-.658-1.133-.478 0-.635.206-.618.812.02.74.047.755.298.17.15-.352.285-.544.298-.426.012.118.11.442.217.72.162.424-.09.507-1.55.507h-1.746l-.058 1.67-.06 1.67.907-.87c.498-.477 1.056-.868 1.24-.868.562 0 1.475 1.192 1.093 1.43-.51.313-.412.812.158.812.276 0 .41-.144.303-.32zm5.283 0a.32.32 0 0 0-.32-.32.32.32 0 0 0-.32.32c0 .176.144.32.32.32a.32.32 0 0 0 .32-.32zm8.327.02c0-.167-.144-.392-.32-.5-.177-.11-.32.026-.32.3 0 .275.143.5.32.5.176 0 .32-.135.32-.3zm5.124.024c0-.15.36-.207.8-.122.645.123.8.024.8-.506 0-.96-.456-1.092-1.287-.37-.878.762-.99.784-.745.144.472-1.23 2.074-1.274 2.716-.075.25.463.246.58-.008.423-.202-.124-.353.007-.353.31 0 .288.18.465.4.393.24-.08.438-.854.496-1.95l.096-1.815h-3.875v1.416c0 .778.088 1.643.195 1.922.204.533.766.702.766.23zm13.13-.044a.32.32 0 0 0-.32-.32.32.32 0 0 0-.32.32c0 .176.144.32.32.32a.32.32 0 0 0 .32-.32zm2.883-.18c0-.274-.143-.41-.32-.3-.175.108-.32.333-.32.5 0 .165.145.3.32.3.177 0 .32-.224.32-.5zm1.602-.48c0-.408-.22-.62-.64-.62-.717 0-.915 1.128-.24 1.37.583.21.88-.043.88-.75zm.757.5c-.103-.264-.227-.48-.277-.48-.05 0-.175.216-.276.48-.11.29-.002.48.276.48.277 0 .387-.19.276-.48zm5.648-.02c0-.274-.144-.41-.32-.3-.177.108-.32.333-.32.5 0 .165.143.3.32.3.176 0 .32-.224.32-.5zm2.562.2c0-.167-.144-.392-.32-.5-.177-.11-.32.026-.32.3 0 .276.143.5.32.5.176 0 .32-.135.32-.3zm8.006 0c0-.167-.144-.392-.32-.5-.176-.11-.32.026-.32.3 0 .276.144.5.32.5.176 0 .32-.135.32-.3zm2.883-.02a.32.32 0 0 0-.322-.32.32.32 0 0 0-.32.32c0 .176.144.32.32.32a.32.32 0 0 0 .32-.32zm5.123-.16c0-.264-.057-.48-.126-.48-.07 0-.21.216-.31.48-.102.264-.045.48.126.48.17 0 .31-.216.31-.48zm13.13-.02c0-.274-.143-.41-.32-.3-.176.108-.32.333-.32.5 0 .165.144.3.32.3.177 0 .32-.224.32-.5zm5.445.18a.32.32 0 0 0-.32-.32.32.32 0 0 0-.32.32c0 .176.144.32.32.32a.32.32 0 0 0 .32-.32zm2.883.03c0-.16.272-.22.605-.132.775.202 1.17-.425.656-1.044-.344-.416-.49-.387-1.147.23-.795.747-.966 1.236-.433 1.236.176 0 .32-.13.32-.29zm5.445-.01c0-.167-.154-.397-.34-.513-.383-.235.53-1.428 1.093-1.428.183 0 .737.388 1.23.86l.9.862v-3.322h-3.782l-.11 1.553c-.103 1.43.168 2.233.77 2.273.13.01.24-.12.24-.285zm-62.45-.642c0-.89-.666-1.177-1.16-.5-.51.695-.304 1.122.537 1.122.402 0 .622-.22.622-.622zm26.58-.042c0-.82-1.06-.728-1.22.107-.074.385.098.557.557.557.458 0 .664-.206.664-.664zm10.57 0c0-.82-1.06-.728-1.222.107-.074.385.1.557.557.557.46 0 .664-.206.664-.664zm10.737.33c.113-.184.026-.552-.194-.817-.35-.422-.46-.424-.866-.017-.256.256-.368.624-.25.817.276.445 1.04.455 1.31.017zm5.435-.307c0-.264-.324-.526-.72-.582-.555-.078-.72.056-.72.583 0 .528.165.662.72.583.396-.056.72-.318.72-.583zM302.44 52.81c0-.352-.145-.64-.32-.64-.177 0-.32.288-.32.64 0 .353.143.64.32.64.175 0 .32-.287.32-.64zm29.793.08c.01-.533.026-.533.337 0 .462.794 1 .696.877-.16-.067-.473-.322-.72-.743-.72-.566 0-.644-.224-.67-1.922-.03-1.846-.025-1.856.096-.24.178 2.357.63 2.098.7-.4.05-1.885-.3-2.71-.714-1.682-.094.23-.173.153-.187-.183-.018-.39.16-.55.534-.478.453.087.58.507.657 2.186.055 1.144.235 2.216.402 2.383.167.168.303.636.303 1.04 0 .406.144.738.32.738.176 0 .32-.36.32-.8.38-1.098.66-2.08.707-3.122.084-2.077.162-2.322.735-2.322.44 0 .654.228.683.725.035.605.018.618-.102.08-.08-.354-.357-.644-.615-.644-.37 0-.453.432-.392 2.082.054 1.44.205 2.08.49 2.08.225 0 .388-.25.363-.56-.13-1.546.176-2.004.374-.56.216 1.57.22 1.555.27-.7.05-2.3.415-3.07 1.12-2.36.283.287.236.324-.2.158-.518-.197-.567-.014-.515 1.903.045 1.62.17 2.12.527 2.12.257 0 .397-.184.31-.407-.085-.224-.044-.98.09-1.68.237-1.232.247-1.21.282.584.023 1.15.16 1.785.357 1.663.175-.11.32-.04.32.155 0 .194-.253.31-.56.26-.37-.063-.595.142-.66.605-.086.597.047.695.908.67.882-.025.99-.123.863-.787-.08-.424.038-.862.267-.992.227-.126.473-.735.547-1.352l.134-1.12.05 1.2c.082 1.887.588 1.403.654-.624.08-2.485.36-2.6.36-.15v1.975h2.24v-5.125c-4.98-.083-9.953-.05-14.41 0l.056 2.642.057 2.643.183-2.242c.134-1.635.307-2.242.638-2.242.25 0 .49.184.536.408.046.225.01.26-.08.08-.445-.898-.766-.11-.714 1.754.068 2.485.58 2.796.66.4l.057-1.68.114 1.44c.062.793.202 1.657.31 1.92.11.266.167.806.128 1.202-.04.397.084.72.273.72.19 0 .348-.25.353-.56zm11.26-3.557c-.05-1.663-.148-2.002-.54-1.85-.265.1-.48.044-.48-.127 0-.476.958-.37 1.148.128.094.24.116 1.214.05 2.162l-.12 1.723-.058-2.037zm-2.696-2.02c.186-.187.527-.276.758-.2.24.08.095.226-.338.34-.533.138-.658.097-.42-.14zm.11 5.577c.036-.533.045-.533.185 0 .22.848 1.126.71 1.002-.152-.075-.52-.32-.713-.903-.713-.582 0-.827.194-.902.713-.056.392.052.713.24.713.19 0 .36-.25.38-.56zm5.87.27c.41-.662-.233-1.31-1.297-1.31-.84 0-1.086.133-1.086.587 0 .323.096.683.213.8.318.318 1.963.26 2.17-.077zm6.264-.51c0-.794-.02-.8-2.882-.8-2.86 0-2.882.006-2.882.8 0 .795.02.8 2.882.8 2.86 0 2.883-.005 2.883-.8zm2.825-.08c.09-.63-.04-.72-1.022-.72-1.235 0-1.59.306-1.282 1.11.324.84 2.175.528 2.305-.39zm5.182.497c0-.3.086-.3.385 0 .597.597.95.455.84-.337-.072-.5-.286-.69-.697-.62-.5.087-.526.03-.17-.35.233-.25.66-.393.947-.317.44.115.532-.196.58-1.97.058-2.1-.258-2.645-.898-1.547-.18.31-.33.417-.33.24-.01-.652.576-1.208 1.073-1.017.397.15.525.72.57 2.528l.058 2.332.182-2.402c.162-2.128.256-2.402.823-2.402.584 0 .64.213.64 2.402 0 2.188-.056 2.402-.64 2.402-.42 0-.676.247-.743.72-.12.856.415.954.878.16.31-.533.327-.533.336 0 .02 1.016.65.584.702-.48l.052-1.04.13 1.04c.146 1.183.728 1.426.728.304 0-.405.136-.873.303-1.04.167-.168.347-1.24.4-2.383.08-1.678.205-2.098.658-2.185.49-.093.56.174.56 2.16 0 2.887.58 2.972.706.103.072-1.657.205-2.162.57-2.162.262 0 .506.288.542.64.052.498.03.516-.1.08-.363-1.235-.758-.443-.758 1.522 0 2.094.603 3.013.683 1.04l.042-1.04.235 1.12c.18.853.246.49.278-1.52l.042-2.643h-14.41V48.9c0 2.263.058 2.498.64 2.54.45.035.65-.158.677-.65.034-.65.048-.654.19-.06.396 1.64.733 1.078.733-1.218 0-2.253.056-2.466.64-2.466.56 0 .634.195.585 1.52l-.055 1.522-.123-1.36c-.192-2.128-.726-1.597-.726.72 0 1.174.14 2.08.32 2.08.176 0 .34-.323.364-.72l.043-.72.142.74c.077.407.325.81.55.897.24.092.346.48.257.94-.086.455 0 .786.208.786.197 0 .358-.172.358-.383zm-4.42-4.017c.077-1.45.215-1.86.657-1.945.462-.087.552.11.51 1.118-.05 1.183-.056 1.19-.18.184-.224-1.794-.798-1.184-.68.72.06.97-.006 1.762-.146 1.762-.14 0-.213-.828-.16-1.84zm5.06 1.52a.32.32 0 0 1 .32-.322.32.32 0 0 1 .32.32.32.32 0 0 1-.32.32.32.32 0 0 1-.32-.32zm19.537 2.06c0-.463-.14-.732-.32-.62-.176.11-.32.477-.32.82 0 .34.144.62.32.62.176 0 .32-.368.32-.82zm1.206.036c-.09-.468.018-.85.268-.945.272-.103.45-.914.513-2.333.073-1.658.21-2.183.576-2.21.298-.02.324.02.07.104-.59.197-.464 4.25.133 4.25.235 0 .408-.253.382-.56-.026-.31 0-1.138.058-1.843.094-1.154.125-1.09.317.64l.212 1.923.053-2.172c.04-1.642.177-2.22.556-2.365.275-.106.67-.013.88.207.298.314.224.352-.354.177-.713-.216-.73-.17-.675 1.855.056 1.986.096 2.083.932 2.25.735.147.85.305.718.992-.18.937.363 1.1.854.257.31-.533.327-.533.336 0 .006.31.164.56.352.56.19 0 .297-.323.24-.72-.073-.518-.282-.69-.742-.615-.59.096-.598.07-.096-.32.327-.255.594-1.004.665-1.867l.118-1.44.056 1.52c.085 2.32.697 1.83.697-.56 0-1.922-.386-2.75-.744-1.595-.107.344-.136.322-.1-.077a.8.8 0 0 1 .608-.67c.487-.094.557.18.557 2.158 0 2.203.023 2.265.802 2.265.77 0 .8-.075.8-2.082 0-1.76-.087-2.086-.56-2.107-.353-.015-.408-.086-.15-.19.226-.09.636.02.91.25.424.35.482.32.39-.21-.1-.565-.46-.64-3.792-.785a119.208 119.208 0 0 0-7.126-.06l-3.443.1.05 2.622c.04 2.258.078 2.422.27 1.18.124-.79.247-1.116.273-.72.09 1.34.69.733.69-.696 0-1.073-.137-1.457-.562-1.582-.435-.13-.417-.15.082-.1.56.056.66.363.81 2.463.157 2.25.427 2.485.732.638.108-.655.14-.61.175.24.082 1.97.684 1.055.684-1.04 0-1.88-.318-2.625-.75-1.754-.09.18-.126.145-.08-.08.045-.224.286-.408.536-.408.33 0 .477.52.542 1.92.048 1.058.178 2.14.288 2.403.11.264.168.804.13 1.2-.05.49.1.72.47.72.4 0 .5-.202.39-.784zm1.036-.016c0-.44-.144-.8-.32-.8-.177 0-.32.36-.32.8 0 .44.143.8.32.8.176 0 .32-.36.32-.8zm2.177.035c-.067-.465-.332-.66-.896-.66-.564 0-.83.195-.896.66-.078.544.08.66.897.66.818 0 .975-.116.896-.66zm-80.13-5.535c.263-.1.653.052.865.342.337.46.385.426.385-.28 0-.776-.076-.807-2.002-.807h-2l.052 2.322.052 2.322.216-1.762.216-1.762.052 1.548c.06 1.737.708 1.95 1.055.347.162-.745.223-.578.304.828.096 1.664.108 1.63.212-.576.08-1.71.24-2.387.592-2.522zm-1.152.773c0-.28-.25-.576-.56-.656-.525-.138-.524-.15.01-.184.58-.038 1.116.785.75 1.15-.11.11-.2-.03-.2-.31zm-1.92 1.044c0-1.494-.134-2.562-.32-2.562-.188 0-.32 1.068-.32 2.562 0 1.495.132 2.562.32 2.562.186 0 .32-1.068.32-2.563zm1.92 2.242c0-.177-.215-.32-.48-.32-.264 0-.48.143-.48.32 0 .175.216.32.48.32.265 0 .48-.145.48-.32zm2.424-.387c.143-.45.08-.754-.175-.84-.307-.1-.298-.197.037-.41.32-.202.33-.277.036-.28-.22-.002-.4-.158-.4-.345 0-.186.16-.24.353-.12.194.12.106-.16-.197-.622-.867-1.32-1.144-1.003-1.083 1.242.05 1.764.145 2.08.63 2.08.315 0 .673-.316.797-.705zm1.1-1.837c0-1.4-.144-2.632-.32-2.74-.204-.127-.32.796-.32 2.542 0 1.614.13 2.74.32 2.74.186 0 .32-1.06.32-2.542zm.542 1.35c-.08-.313-.153-.136-.16.393-.007.527.06.782.148.565.088-.216.093-.65.012-.96zm2.98-.888c0-1.175-.14-2.082-.32-2.082s-.32.907-.32 2.082c0 1.174.14 2.08.32 2.08s.32-.906.32-2.08zm10.57 1.76a.32.32 0 0 0-.32-.32.32.32 0 0 0-.32.32c0 .177.143.32.32.32a.32.32 0 0 0 .32-.32zm1.612.08c.18-3.72.123-4.883-.244-4.883-.296 0-.408.7-.408 2.562 0 1.495.134 2.562.32 2.562.177 0 .326-.11.332-.24zm1.91-1.86c0-2.516-.56-2.745-.73-.3l-.123 1.764.026-1.84c.023-1.485.136-1.86.588-1.947.49-.093.56.173.56 2.12 0 2.16.024 2.224.8 2.224.77 0 .802-.078.802-2.042 0-2.124-.504-2.816-.73-1-.124 1.004-.13.998-.18-.185-.042-1.007.048-1.205.51-1.118.447.085.597.556.744 2.346l.183 2.24.057-2.643c.06-2.864.165-2.713-1.865-2.713-2.017 0-1.923-.126-1.923 2.565 0 2.264.06 2.498.64 2.54.58.045.64-.148.64-2.012zm3.57.02c.028-1.145.064-2.25.08-2.456.02-.205-.147-.433-.367-.507-.297-.1-.4.527-.4 2.456 0 3.1.62 3.556.69.508zm16.62-2.402c.345 0 .627.14.627.31 0 .17-.218.226-.485.124-.406-.156-.477.162-.438 1.95.037 1.724.136 2.102.51 1.958.257-.098.602-.18.768-.18.682-1.998-.38-4.855.126-6.404-.763-.407-1.42-.32-2.293-.32l-.072 3.205c-.08 3.7.396 5.19.538 1.678.084-2.06.165-2.322.72-2.322zm7.353.88v-3.442c-1.88-.024-4.09-.064-5.764.32.903 1.76-.46 4.626.32 6.46.177.057 1.474.105 2.883.106h2.56v-3.443zm-5.444 1.095c0-1.76.07-1.974.64-1.974.497 0 .632.2.598.88-.038.756-.064.778-.183.16-.264-1.376-.78-.728-.696.874.046.877-.015 1.693-.137 1.815-.12.12-.22-.668-.22-1.754zm1.983.027c-.056-1.808 0-2 .578-2 .58 0 .635.192.58 2l-.06 2.002-.116-1.842c-.063-1.013-.245-1.842-.404-1.842-.158 0-.34.83-.403 1.842l-.116 1.84-.062-2zm2.792 1.602c-.016-.133-.005-.926.024-1.763.06-1.8-.54-2.067-.723-.32l-.126 1.2-.054-1.36c-.046-1.166.04-1.36.587-1.36.57 0 .64.212.64 1.92 0 1.057-.072 1.922-.16 1.922-.088 0-.172-.11-.188-.24zm2.59.365c0-.326-.176-.447-.48-.33-.385.147-.47-.086-.43-1.167.046-1.18.068-1.22.18-.31.2 1.61.684 1.23.815-.64.1-1.442.126-1.348.176.658.04 1.543.175 2.27.396 2.133.208-.13.31-1.486.266-3.56l-.07-3.35c-.75.066-1.503.13-2.256.194l-.124 3.254c-.114 2.944-.07 3.27.46 3.406 1 .258 1.066.24 1.066-.29zm9.874-1.567c.063-1.71-.013-2.082-.426-2.082s-.488.372-.425 2.082c.045 1.24.217 2.08.425 2.08s.38-.84.426-2.08zm3.257 1.76a.32.32 0 0 0-.32-.32.32.32 0 0 0-.32.32c0 .177.144.32.32.32a.32.32 0 0 0 .32-.32zm3.843-2.267c0-1.903-.104-2.553-.393-2.457-.557.186-.564 5.046-.007 5.046.287 0 .4-.732.4-2.59zm1.36-1.835c.435-.082.552.098.518.798-.036.755-.066.786-.182.184-.283-1.468-.735-.656-.735 1.32 0 1.965.03 2.042.8 2.042.778 0 .8-.066.8-2.226 0-1.946.072-2.212.562-2.12.447.086.596.557.743 2.347l.184 2.24.056-2.612.057-2.61-1.603-.112c-.882-.06-1.747-.063-1.922-.004-.183.06-.294 1.222-.262 2.722l.057 2.616.183-2.24c.147-1.79.297-2.26.745-2.344zm2.163 2.343c0-1.175-.14-2.082-.32-2.082-.182 0-.32.907-.32 2.082 0 1.174.138 2.08.32 2.08.18 0 .32-.906.32-2.08zm1.853-.48c-.05-1.41-.2-2.562-.333-2.562a.26.26 0 0 0-.255.24c-.196 3.05-.096 4.883.266 4.883.314 0 .393-.63.323-2.562zm1.67 2.24a.32.32 0 0 0-.32-.32.32.32 0 0 0-.32.32c0 .177.143.32.32.32a.32.32 0 0 0 .32-.32zm14.09-2.24c0-1.495-.133-2.563-.32-2.563-.186 0-.32 1.068-.32 2.562 0 1.495.134 2.562.32 2.562.187 0 .32-1.068.32-2.563zm1.888.44c.05-1.79-.018-2.09-.433-1.93-.27.103-.493.038-.493-.145 0-.184.253-.286.56-.228.45.085.598.556.745 2.346.152 1.86.197 1.996.267.798.078-1.337.103-1.375.356-.533.15.5.194 1.112.098 1.36-.104.275.03.454.338.454.29 0 .49-.242.464-.56-.025-.31 0-1.21.06-2.003.1-1.36.117-1.322.315.64l.21 2.083.055-2.643c.055-2.61.046-2.642-.745-2.677-2.516-.112-2.947-.037-3.174.556-.11.287-.057.694.118.905.215.26.192.51-.07.774-.307.307-.298.447.04.657.302.187.326.334.08.487-.196.12-.356.57-.356 1 0 .608.168.782.754.782.71 0 .758-.124.813-2.12zm-1.246 1.16a.32.32 0 0 1 .32-.32.32.32 0 0 1 .32.32.32.32 0 0 1-.32.32.32.32 0 0 1-.32-.32zm2.05-2.718c.02-.39.28-.663.672-.702.46-.047.49-.02.1.096-.297.09-.6.405-.672.702-.092.38-.122.353-.1-.096zm2.754 1.117c0-1.494-.133-2.562-.32-2.562s-.32 1.068-.32 2.562c0 1.495.133 2.562.32 2.562s.32-1.068.32-2.563zm-30.425 0c0-.88-.144-1.6-.32-1.6-.176 0-.32.72-.32 1.6 0 .88.144 1.602.32 1.602.176 0 .32-.722.32-1.603zm-46.118-.16c0-.792-.144-1.44-.32-1.44-.176 0-.32.648-.32 1.44 0 .793.144 1.44.32 1.44.176 0 .32-.647.32-1.44zm-16.78-3.603c-.186-.534-.174-.534.24 0 .675.866 1.355.7 1.312-.32-.033-.797-.164-.89-1.372-.98-.734-.053-1.334-.22-1.334-.37s.29-.196.64-.104c.564.147.648-.002.698-1.23l.056-1.4.122 1.362c.162 1.796.726 1.754.726-.054 0-.778.08-1.625.18-1.882.128-.333-.055-.466-.64-.466-.858 0-1.11.396-.42.66.22.086.092.14-.285.122-.425-.02-.625-.192-.525-.45.11-.287-.073-.384-.58-.306-.68.104-.733.25-.648 1.84.05.95.16 1.838.243 1.972.083.135 0 .245-.188.245s-.34.432-.34.96c0 .89.085.962 1.155.962.96 0 1.122-.095.96-.56zm2.69-.24c0-.564.173-.8.588-.8.324 0 .753-.36.954-.8.2-.442.515-.802.7-.802.182 0 .497.36.697.8.323.71.562.8 2.075.8 1.19 0 1.71-.125 1.71-.415 0-.728.7-1.214 1.177-.818.233.193.42.514.414.712-.004.2-.157.106-.34-.206-.362-.624-.93-.462-.93.266 0 .36.517.46 2.35.46 2.197 0 2.375-.05 2.716-.8.2-.44.515-.8.698-.8.184 0 .498.36.7.8.282.622.603.8 1.433.8h1.07V39.71l-13.707-.02c-1.3 1.79-2.782 4.762-2.666 6.074.198 0 .36-.36.36-.8zm5.12-2.714c.372-.235.393-.387.094-.686-.3-.298-.513-.285-.96.06-.5.39-.494.354.034-.265.57-.67.634-.68 1.03-.156.594.78.544 1.36-.116 1.353-.476-.004-.488-.05-.083-.307zm4.166-.29c0-.895.782-1.443 1.25-.877.298.358.265.44-.162.405-.295-.026-.608.154-.694.4-.115.328.06.403.677.285.46-.087.757-.036.664.115-.093.15-.52.274-.95.274-.552 0-.783-.177-.783-.6zm-8.325 3.164c0-.352-.145-.64-.32-.64-.177 0-.32.288-.32.64 0 .352.143.64.32.64.175 0 .32-.288.32-.64zm3.202-.04c0-.49-.234-.576-1.44-.524-1.098.048-1.442.19-1.442.588 0 .41.32.525 1.44.525 1.186 0 1.442-.104 1.442-.588zm5.068.147c-.146-.75-.897-.92-.942-.213-.033.536-.05.54-.183.027-.2-.767-.74-.71-.74.08 0 .502.213.64.984.64.747 0 .96-.128.88-.533zm6.782-.146c0-.427-.23-.6-.8-.6-.57 0-.8.173-.8.6s.23.6.8.6c.57 0 .8-.173.8-.6zm1.6.2c0-.267.286-.48.642-.48.355 0 .64.213.64.48s.284.48.64.48c.498 0 .64-.213.64-.96v-.96H324.207l.073.96c.052.682.24.96.646.96.315 0 .572-.216.572-.48zm.962.16a.32.32 0 0 0-.32-.32.32.32 0 0 0-.32.32c0 .177.143.32.32.32a.32.32 0 0 0 .32-.32zm4.803-.34c0-.707-.337-.795-.897-.236-.3.3-.384.3-.384 0 0-.21-.144-.384-.32-.384-.176 0-.32.266-.32.592 0 .438.25.6.96.62.746.02.96-.112.96-.593zm3.203.02c0-.352-.145-.64-.32-.64-.177 0-.325.252-.33.56-.01.534-.026.534-.337 0-.44-.752-.936-.71-.936.08 0 .5.214.64.96.64.748 0 .962-.14.962-.64zm7.686 0c0-.685-.624-.91-.666-.24-.02.32-.057.32-.187 0-1.53-.56-.972.566-.11.88.748 0 .962-.14.962-.64zm1.92.04c0-.426-.23-.6-.8-.6-.57 0-.8.174-.8.6 0 .428.23.6.8.6.57 0 .8-.172.8-.6zm13.773-.04c0-.352-.212-.64-.47-.64-.31 0-.404.193-.278.56.157.456.097.44-.32-.08-.51-.634-.513-.634-.523.08-.008.558.17.72.79.72.587 0 .8-.17.8-.64zm2.242 0c0-.456-.227-.59-.96-.57-.68.02-.962.187-.962.57 0 .384.282.552.96.57.735.022.962-.113.962-.57zm5.444 0c0-.498-.212-.64-.96-.64-1.593.327-.717 1.02 0 1.28.748 0 .96-.14.96-.64zm8.1 0c.19-.724 1.19-.56 1.19.195 0 .244.287.445.64.445.497 0 .64-.213.64-.96 0-.96 0-.96-1.922-.96-1.92 0-1.92 0-1.92.96 0 .727.145.96.602.96.334 0 .678-.286.77-.642zm.868.32a.32.32 0 0 0-.32-.32.32.32 0 0 0-.32.32c0 .177.144.32.32.32a.32.32 0 0 0 .32-.32zm3.523-.32c0-.786-.625-.86-.676-.08-.036.534-.044.534-.184 0-.2-.767-.74-.708-.74.08 0 .47.214.64.8.64.588 0 .8-.17.8-.64zm2.884-.16c0-.747.106-.8 1.6-.8 1.148 0 1.602-.125 1.602-.44 0-.72.783-1.21 1.225-.77.208.208.373.528.368.713-.006.185-.158.08-.34-.23-.363-.624-.93-.462-.93.265 0 .36.516.462 2.35.462 2.215 0 2.37-.048 2.726-.826.43-.944 1.023-.893 1.484.126.19.42.605.7 1.04.7 1.55-.236-1.175-3.314-1.824-4.35l-13.784-.145v4.494h1.07c.83 0 1.15-.18 1.434-.8.2-.44.507-.8.68-.8.56 0 .98 1.198.777 2.214-.126.635-.068.987.163.987.2 0 .36-.36.36-.8zm.9-2.62c.232-.093.508-.08.614.025.107.105-.082.18-.42.167-.373-.015-.45-.09-.194-.193zm.947-.384c-.15-.552-.356-.704-.752-.553-.464.18-.483.135-.126-.294.363-.438.48-.444.876-.046.253.253.403.728.335 1.057-.105.51-.155.484-.332-.163zm3.918.026c0-1.002.677-1.412 1.34-.81.884.8.723 1.387-.38 1.387-.71 0-.96-.15-.96-.577zm1.522-.144a.63.63 0 0 0-.56-.4.63.63 0 0 0-.56.4c-.08.238.146.4.56.4.412 0 .64-.162.56-.4zm-6.325 3.283c0-.353-.145-.64-.32-.64-.177 0-.32.287-.32.64 0 .352.143.64.32.64.175 0 .32-.288.32-.64zm2.316.202c.17-.26.238-.248.242.038.002.22.15.4.325.4.176 0 .32-.27.32-.6 0-.44-.234-.6-.88-.603-.485-.002-.987.16-1.117.36-.168.26-.236.248-.24-.038-.002-.22-.15-.4-.325-.4-.176 0-.32.27-.32.6 0 .442.234.602.88.603.485.002.987-.16 1.116-.36zm7.933-.254c0-.324-.144-.59-.32-.59-.177 0-.323.18-.326.4-.003.253-.092.28-.24.078-.13-.178-.63-.343-1.116-.366-.666-.032-.88.106-.88.567 0 .518.22.602 1.442.556 1.165-.044 1.44-.167 1.44-.643zm2.678.212c.203-.527 1.166-.668 1.166-.17 0 .17-.216.227-.48.125-.265-.1-.48-.024-.48.17 0 .196.504.355 1.12.355 1.036 0 1.12-.074 1.12-.977v-.976l-1.833.096c-1.85.097-2.04.283-1.724 1.697.08.37.94.122 1.11-.32zm-84.024-1.402c0-.155-.216-.46-.48-.68-.264-.22-.48-.32-.48-.226 0 .096-.088.402-.195.68-.138.363-.002.507.48.507.373 0 .676-.127.676-.28zm10.564.04c-.003-.13-.147-.456-.32-.72-.28-.427-.35-.427-.63 0-.474.72-.395.96.314.96.353 0 .64-.107.636-.24zm9.554-.56c.2-.44.516-.8.7-.8.183 0 .497.36.698.8.325.713.558.8 2.128.8.97 0 1.667-.096 1.55-.213-.118-.118.024-.478.315-.8.403-.445.633-.5.96-.227.24.197.433.557.433.8 0 .32.47.44 1.71.44 1.514 0 1.752-.09 2.075-.8.2-.44.515-.8.7-.8.183 0 .497.36.698.8.515 1.128 1.223 1.024 1.223-.18 0-.57.134-.896.32-.78.196.12.32-.36.32-1.23V39.75l-16.172.092-.094 2.162-.095 2.162h1.085c.846 0 1.165-.176 1.45-.8zm2.3-1.176c0-.206.233-.632.518-.946.44-.486.583-.505.96-.128.778.778.54 1.45-.517 1.45-.528 0-.96-.168-.96-.375zm1.522-.345a.63.63 0 0 0-.56-.4.63.63 0 0 0-.56.4c-.08.238.147.4.56.4.412 0 .64-.162.56-.4zm3.923.12c0-.332.193-.763.43-.96.332-.275.574-.193 1.042.355.465.546.48.614.062.292-.3-.234-.697-.33-.88-.217-.555.343-.378.756.386.903.618.12.595.145-.16.183-.664.032-.88-.106-.88-.56zm-6.406 2.068c0-.074-.09-.366-.198-.65-.153-.397-.297-.43-.64-.146-.633.525-.547.93.197.93.353 0 .64-.06.64-.134zm5.063-.427c-.13-.675-.698-.632-.843.064-.06.29.116.497.424.497.33 0 .487-.21.42-.56zm5.5.32c-.002-.13-.146-.456-.32-.72-.28-.427-.35-.427-.63 0-.473.72-.394.96.315.96.352 0 .638-.107.636-.24zm2.888-.4c0-.352-.144-.64-.32-.64-.177 0-.32.288-.32.64 0 .353.143.64.32.64.176 0 .32-.287.32-.64zm1.92 0c0-.352-.143-.64-.32-.64-.175 0-.32.288-.32.64 0 .353.145.64.32.64.177 0 .32-.287.32-.64zm1.923 0c0-.352-.144-.64-.32-.64-.176 0-.32.288-.32.64 0 .353.144.64.32.64.176 0 .32-.287.32-.64zm1.922 0c0-.352-.145-.64-.32-.64-.177 0-.32.288-.32.64 0 .353.143.64.32.64.175 0 .32-.287.32-.64zm1.92 0c0-.352-.143-.64-.32-.64-.175 0-.32.288-.32.64 0 .353.145.64.32.64.177 0 .32-.287.32-.64zm2.057.446c.278-.108.504-.432.5-.72-.003-.458-.045-.464-.314-.047-.207.32-.312.347-.315.08-.003-.22-.15-.4-.326-.4-.176 0-.32.288-.32.64 0 .706.04.728.775.446zm2.05-.607c.2-.44.514-.8.698-.8.184 0 .498.36.7.8l.364.8h5.106c4.525 0 5.085-.057 4.912-.506-.107-.278-.194-.59-.194-.69 0-.1-.31.09-.687.427-.684.606-.685.606-.31-.11.495-.942.924-.912 1.383.095.3.656.564.797 1.354.72l.982-.096V39.84l-16.173-.132v1.427c0 .785.144 1.428.32 1.428.176 0 .32.36.32.8 0 .456.185.8.43.8.235 0 .593-.36.793-.8zm5.192.28c-.007-.2.183-.523.42-.72.332-.275.57-.19 1.03.36.587.706.586.71-.005.174-.57-.515-.63-.515-1.02 0-.23.3-.42.384-.426.186zm-2.705-1.355c-.093-.15.187-.205.622-.122.595.113.79.013.79-.404 0-.403-.18-.508-.658-.383-.544.14-.593.09-.28-.288.477-.573 1.258-.033 1.258.87 0 .423-.23.6-.782.6-.43 0-.858-.123-.95-.274zm5.256-.332c0-.817.954-1.14 1.565-.528.36.36.395.584.133.846s-.343.2-.306-.238c.028-.337-.158-.594-.43-.594-.265 0-.46.252-.436.56.024.308-.084.56-.24.56-.157 0-.285-.272-.285-.606zm-6.41 1.968c-.002-.132-.146-.457-.32-.72-.28-.428-.35-.428-.63 0-.473.72-.394.96.315.96.352 0 .638-.108.636-.24zm21.463.106c0-.074-.09-.366-.197-.65-.153-.397-.298-.43-.64-.146-.634.525-.548.93.197.93.352 0 .64-.06.64-.134zm10.564-.106c-.002-.132-.147-.457-.32-.72-.28-.428-.35-.428-.63 0-.474.72-.395.96.314.96.354 0 .64-.108.637-.24zm-65.27-2.082l.06-1.682.117 1.682c.147 2.096.727 2.225.72.16-.006-1.8-.266-2.31-1.143-2.244-.576.043-.638.242-.566 1.827.045.978.088 1.814.097 1.858.01.044.162.08.338.08.176 0 .347-.757.38-1.68zm2.183.266c0-.778.088-1.643.194-1.922.148-.385-.013-.506-.674-.506-.66 0-.823.12-.675.506.107.28.194 1.144.194 1.922 0 1.044.125 1.415.48 1.415.354 0 .48-.37.48-1.415zm46.818-.306l.06-1.642.117 1.682c.12 1.743.697 2.35.76.8.02-.484.09-1.35.156-1.92.108-.927.034-1.042-.67-1.042-.81 0-.924.22-1.25 2.402-.08.528-.106.222-.06-.68.08-1.505.027-1.642-.62-1.642-.646 0-.694.125-.564 1.48.2 2.088.26 2.203 1.186 2.203.773 0 .83-.106.886-1.64zm20.382-1.608c.237 1.078.098 2.394.336 3.33.198 0 .37-.18.385-.4.02-.322.06-.322.188 0 .365.904 1.07.388 1.093-.802.014-.66.08-1.497.15-1.858.11-.593-.046-.663-1.603-.707-1.7-.05-1.724-.037-1.61.817.062.477.123 1.336.135 1.908.882 1.842.645-1.1.928-2.288zm.843.746c-.116-.188-.143-.41-.06-.495.085-.083.24.07.344.342.216.564.032.664-.284.153zm-46.265-1.615c0-2.634-.048-2.848-.64-2.848-.593 0-.64.214-.64 2.83 0 2.964.096 3.32.83 3.04.34-.13.45-.874.45-3.022zm3.198-1.684c-.005-5.042-.256-5.948-1.76-6.38-1.02-.29-2.72.155-2.72.716 0 .175.206.24.457.143.862-.332 1.145 1.056 1.145 5.617 0 2.79.122 4.505.32 4.505.2 0 .32-1.802.32-4.765 0-3.947.087-4.836.506-5.183.418-.348.554-.34.795.04.16.253.288.604.285.78-.003.177-.153.066-.335-.246-.546-.94-.93-.3-.93 1.546 0 1.512.08 1.743.62 1.743.5 0 .647-.27.746-1.36.067-.75.118.583.113 2.96-.007 2.676-.052 3.256-.118 1.523-.097-2.534-.167-2.803-.735-2.803-.577 0-.628.233-.628 2.856 0 2.943.158 3.29 1.36 2.98.5-.13.56-.628.556-4.672zm-3.024-5.624c-.237-.384.365-.763.792-.5.358.222.123.798-.326.798-.155 0-.365-.134-.466-.298zm-3.056 4.3c0-3.735-.12-5.924-.32-5.924-.203 0-.32 2.19-.32 5.925 0 3.737.117 5.925.32 5.925.2 0 .32-2.188.32-5.925zm1.192-4.525c.456-.794 1.067-1.077 2.33-1.077 2.402 0 2.683.652 2.9 6.725l.175 4.964.064-6.005.064-6.005h-6.404l.064 6.005.064 6.005.176-4.964c.107-3.005.33-5.233.568-5.647zm.342 2.846c.057 1.285.166 1.52.707 1.52.552 0 .64-.21.636-1.52-.006-1.816-.454-2.76-.95-2.002-.28.427-.317.427-.326 0-.01-.427-.044-.427-.32 0-.172.266-.283 2.553-.25 5.124l.063 4.644.187-4.644c.102-2.554.217-3.96.253-3.122zm6.152 1.68c0-3.735-.118-5.924-.32-5.924s-.32 2.19-.32 5.925c0 3.737.118 5.925.32 5.925s.32-2.188.32-5.925zm-47.08 2.403c0-.584-.212-.64-2.37-.64-2.215 0-2.362.04-2.205.64.147.56.437.64 2.372.64 1.99 0 2.203-.062 2.203-.64zm-3.902-.22c.23-.092.507-.08.614.026.106.106-.083.182-.42.168-.374-.016-.45-.09-.194-.194zm25.223.14c.07-.492-.214-.56-2.292-.56-2.177 0-2.373.053-2.373.653 0 .607.166.648 2.292.56 1.895-.077 2.306-.19 2.373-.654zm-3.46-.147c.397-.077.974-.074 1.28.006.306.08-.02.14-.725.138-.704-.003-.955-.07-.556-.146zm2.257.008c.23-.092.507-.08.614.026.106.106-.083.182-.42.168-.374-.015-.45-.09-.194-.193zm49.06.22c0-.583-.213-.64-2.372-.64-2.214 0-2.36.04-2.204.64.147.562.436.64 2.372.64 1.99 0 2.204-.062 2.204-.64zm-3.283-.213c.22-.09.58-.09.8 0 .22.09.04.162-.4.162s-.62-.074-.4-.163zm24.603.132c.07-.49-.215-.56-2.293-.56-2.177 0-2.373.053-2.373.653 0 .607.166.648 2.292.56 1.896-.077 2.306-.19 2.374-.654zm-1.524-.14c.23-.092.508-.08.614.026.107.106-.083.182-.42.168-.373-.015-.45-.09-.194-.193zm-89.74-1.15c.13-.128-.52-.232-1.44-.232-.92 0-1.597.124-1.502.277.202.328 2.607.292 2.943-.045zm21.13.007c.133-.132-.432-.24-1.254-.24-.822 0-1.494.108-1.494.24 0 .133.564.24 1.254.24.69 0 1.362-.107 1.494-.24zm48.076-.036c.112-.11-.576-.2-1.53-.198-1.138.003-1.58.103-1.285.29.485.307 2.48.243 2.815-.09zm21.158-.02c.1-.1-.525-.18-1.39-.178-1.145.003-1.444.09-1.095.32.473.31 2.13.215 2.485-.14zm-91.89-2.184c.07 1.823.692 1.75.692-.08 0-1.434-.006-1.44-1.12-1.44H303.4l.048 1.52.048 1.52.224-1.44c.233-1.496.43-1.452.33.073-.108 1.668.464 1.744.66.086l.19-1.6.05 1.36zm21.005.08c-.07-.707.017-1.28.19-1.28s.34.683.372 1.52l.057 1.52.12-1.52c.15-1.89.647-1.988.812-.16l.122 1.36.056-1.484c.053-1.394.002-1.492-.825-1.604-1.96-.264-2.323-.03-2.323 1.51 0 1.812.565 1.856.727.058l.122-1.36.056 1.54c.03.846.187 1.458.346 1.36.16-.1.234-.756.166-1.46zm48.173-.1c.072 1.925.678 2.086.747.2l.056-1.54.123 1.36c.143 1.59.73 1.85.722.32-.006-1.457-.292-1.763-1.757-1.89l-1.28-.112-.036 1.602c-.03 1.437-.02 1.462.1.24.143-1.477.82-1.925.726-.48-.115 1.74.115 2.13.33.56l.22-1.6.05 1.34zm22.034.474c.09-1.685.214-1.792.435-.374l.224 1.44.05-1.52c.043-1.412-.01-1.524-.754-1.56a79.525 79.525 0 0 1-1.36-.08c-.46-.034-.57.248-.604 1.56l-.042 1.6.234-1.44.235-1.44.047 1.36c.026.748.184 1.36.35 1.36.166 0 .357-.612.424-1.36l.124-1.36.056 1.573c.057 1.606.5 1.788.582.24zm-89.84-.632c-.147-1.742-.36-1.684-.36.098 0 .85.104 1.444.23 1.317.128-.127.186-.763.13-1.415zm-.36-2.304c0-.176-.424-.32-.942-.32s-1.03.144-1.14.32c-.117.19.264.32.942.32.627 0 1.14-.144 1.14-.32zm21.138 0c0-.176-.433-.32-.96-.32-.53 0-.962.144-.962.32 0 .176.432.32.96.32.53 0 .962-.144.962-.32zm48.04 0c0-.176-.433-.32-.962-.32-.528 0-.96.144-.96.32 0 .176.432.32.96.32.53 0 .96-.144.96-.32zm21.296 0c-.108-.176-.62-.32-1.14-.32-.517 0-.94.144-.94.32 0 .176.512.32 1.14.32.677 0 1.058-.13.94-.32zm-91.718-1.2c.034-.516.05-.514.187.017.198.764.87.52 1-.362.083-.566-.067-.704-.8-.74-.757-.036-.786-.066-.184-.182.398-.076.722-.26.722-.41 0-.607-.412-1.285-.78-1.285-.512 0-1.197 2.17-.77 2.435.172.106.235.394.14.64-.094.247-.032.45.14.45.17 0 .326-.254.346-.562zm21.443 0c.02-.48.064-.47.3.08.15.35.284.47.297.266.012-.206.11-.603.217-.88.15-.396-.025-.508-.8-.508-.85 0-.996.12-.996.8 0 .914.947 1.146.983.24zm48.777.072c.225-.585-.418-3.704-.856-4.156-.2-.21-.25-.07-.135.4.095.396.06.72-.077.72-.37 0-.677 1.866-.454 2.754.217.865 1.228 1.052 1.523.282zm21.194-.233c.4-.882-.085-2.802-.708-2.802-.235 0-.427.133-.427.295 0 .16-.083.51-.184.775-.124.325.057.527.56.623.71.135.706.144-.08.186-.794.04-1.25.997-.482 1.008.19.002.13.145-.133.315-.38.246-.313.312.324.316.527.002.917-.245 1.13-.717zm-69.28-1.38c.31-.308-.126-1.422-.554-1.422-.388 0-.798.672-.798 1.308 0 .318 1.06.408 1.353.115zm18.526-1.422c.164 0 .32-.468.347-1.04.044-.97.057-.98.18-.16.075.484.28.88.455.88.194 0 .285-.952.232-2.402-.093-2.497-.718-3.39-.863-1.235-.043.64-.217 1.425-.386 1.74-.167.316-.306.915-.306 1.332 0 .417-.163.92-.363 1.12-.22.22-.258.592-.098.945.225.495.282.45.384-.3.067-.483.255-.88.42-.88zm1.26.96c0-.354-.214-.64-.48-.64-.268 0-.48.286-.48.64 0 .357.212.642.48.642.266 0 .48-.285.48-.64zm.96 0c0-.35-.144-.64-.32-.64-.176 0-.32.29-.32.64 0 .354.144.642.32.642.176 0 .32-.288.32-.64zm.96 0c0-.35-.143-.64-.32-.64-.175 0-.32.29-.32.64 0 .354.145.642.32.642.177 0 .32-.288.32-.64zm.962 0c0-.35-.144-.64-.32-.64-.176 0-.32.29-.32.64 0 .354.144.642.32.642.176 0 .32-.288.32-.64zm.96 0c0-.35-.143-.64-.32-.64-.176 0-.32.29-.32.64 0 .354.144.642.32.642.177 0 .32-.288.32-.64zm.962 0c0-.35-.145-.64-.32-.64-.177 0-.32.29-.32.64 0 .354.143.642.32.642.175 0 .32-.288.32-.64zm.96 0c0-.35-.144-.64-.32-.64-.176 0-.32.29-.32.64 0 .354.144.642.32.642.176 0 .32-.288.32-.64zm.96-.178c0-.253-.143-.46-.32-.46-.175 0-.32.296-.32.658 0 .363.145.57.32.462.177-.11.32-.406.32-.66zm1.282.18c0-.356-.213-.64-.48-.64s-.48.284-.48.64c0 .355.213.64.48.64s.48-.285.48-.64zm1.28-.18c0-.253-.143-.46-.32-.46-.175 0-.32.296-.32.658 0 .363.145.57.32.462.177-.11.32-.406.32-.66zm-.64-1.603c0-.453-.138-1.08-.306-1.397-.17-.315-.343-1.1-.386-1.74-.145-2.156-.77-1.262-.863 1.235-.054 1.45.038 2.402.232 2.402.175 0 .38-.396.453-.88.124-.82.137-.81.18.16.058 1.223.69 1.424.69.22zm-50.165.02c-.1-.264-.24-.48-.31-.48s-.126.216-.126.48.14.48.31.48c.172 0 .23-.216.127-.48zm21.342-.02c0-.274-.147-.408-.326-.297-.18.11-.243.335-.142.5.275.443.467.36.467-.202zm23.7.234c-.21-.07-.045-.293.364-.497.408-.203.917-.72 1.13-1.148.336-.673.3-.84-.26-1.232-.84-.59-1.554-.03-.927.727.232.28.27.494.085.494-.517 0-.76-1-.36-1.483.278-.335.264-.44-.058-.44-.307 0-.327-.097-.074-.35.434-.434 1.538.09 1.997.947.38.713.32 1.965-.098 1.965-.17 0-.206.1-.083.223.123.123-.106.406-.507.63-.683.378-.642.405.63.416l1.36.01v-4.804h-6.404v4.814l1.79-.075c.987-.04 1.622-.132 1.414-.2zm-1.64-.294a1.848 1.848 0 0 1 0-.48c.02-.133-.107-.24-.283-.24-.626 0-.323-1.808.42-2.507.41-.383.84-.696.962-.696.36 0 .095.708-.502 1.334-.683.716-.713 1.35-.096 1.968.256.256.376.555.267.664-.274.273-.725.25-.77-.042zm47.014-.14c-.102-.256-.178-.18-.193.193-.013.338.063.527.17.42.105-.106.117-.382.024-.613zm-48.927-7.466c.044 1.057.157 1.725.253 1.485.146-.37.216-.37.45 0 .172.27.278-.364.28-1.673.006-1.99-.034-2.105-.714-2.056-.663.048-.724.217-.756 2.11l-.035 2.055.222-1.92.22-1.923.08 1.922zm2.27-.16c0-1.068-.142-1.922-.32-1.922-.178 0-.32.854-.32 1.922 0 1.067.142 1.92.32 1.92.178 0 .32-.853.32-1.92zm1.602 0c0-2.453-.57-2.515-.73-.08-.068 1.012-.11.184-.097-1.842.02-3.05.108-3.683.505-3.683.39 0 .51.693.64 3.682.14 3.185.237 3.696.722 3.777.48.08.56-.176.56-1.82 0-1.55-.106-1.94-.56-2.058-.403-.105-.348-.156.195-.183.665-.034.74-.17.63-1.123-.093-.788-.015-1.04.284-.926.288.11.41-.187.41-.997v-1.155h-5.764v1.155c.118 1.06.545 1.04.8 1.76 0 1.104.56 1.254.85.227.114-.407.222.497.24 2.01.032 2.805.136 3.175.886 3.175.308 0 .427-.534.427-1.92zm3.262.08l.06-1.842.116 1.842c.064 1.012.217 1.84.34 1.842.123 0 .176-.85.117-1.89-.096-1.706-.182-1.904-.88-2.038-.753-.143-.774-.092-.774 1.89 0 1.597.104 2.037.48 2.037.365 0 .496-.445.542-1.84zm-3.263-3.924c0-.88-.145-1.6-.322-1.6-.176 0-.32.72-.32 1.6 0 .88.144 1.602.32 1.602.177 0 .32-.72.32-1.602zm-2.945.72c-.13-.674-.698-.63-.843.064-.06.29.116.498.424.498.33 0 .487-.21.42-.56zm6.146.08a.482.482 0 0 0-.48-.48.482.482 0 0 0-.48.48c0 .265.217.48.48.48.265 0 .48-.215.48-.48zm-2.24-4.556c0-.635-.163-.727-1.282-.727-1.118 0-1.28.092-1.28.727 0 .634.162.726 1.28.726 1.12 0 1.282-.092 1.282-.726zm-1.597-.22c.207-.207.424-.207.63 0 .21.208.1.316-.315.316-.414 0-.523-.108-.315-.315zm-1.286.133c0-.427-.213-.64-.64-.64-.427 0-.64.213-.64.64 0 .427.213.64.64.64.427 0 .64-.213.64-.64zm4.484 0c0-.427-.213-.64-.64-.64-.427 0-.64.213-.64.64 0 .427.213.64.64.64.427 0 .64-.213.64-.64zm-3.22-3.523c.052.97.07 1.942.042 2.162-.03.22.1.4.282.4.198 0 .335-.837.335-2.042 0-2.05-.3-2.66-1.277-2.62-.648.026-.888 3.03-.274 3.42.32.203.326.273.028.277-.22.003-.4.158-.4.345 0 .186.143.25.32.14.176-.108.345-.008.376.222.03.23.15-.59.264-1.822l.207-2.242.095 1.76zm1.832.087c-.044-1.773-.145-2.12-.638-2.192-.406-.06-.528.06-.4.396.102.265.185 1.33.185 2.367 0 1.493.093 1.85.45 1.713.335-.128.44-.725.402-2.282zm-.952-3.77c.05-.914-.052-1.12-.557-1.12-.474 0-.605.206-.564.88.066 1.102.196 1.362.677 1.362.21 0 .41-.502.443-1.12z"/></g></svg>